<svg xmlns="http://www.w3.org/2000/svg" width="20.328" height="14.109" viewBox="0 0 20.328 14.109">
    <g>
        <path fill="#898989" d="M219.528 392.971a4.232 4.232 0 0 1 3.974 2.787 4.018 4.018 0 0 1 .19.711 3.9 3.9 0 0 1 0 1.469 4.017 4.017 0 0 1-.19.713 4.32 4.32 0 0 1-.733 1.273 4.229 4.229 0 0 1-7.218-1.273 4.133 4.133 0 0 1-.191-2.182l-2.779-.49a7.12 7.12 0 0 0 .315 3.638 7.052 7.052 0 0 0 12.032 2.118 6.845 6.845 0 0 0 .706-1 7.051 7.051 0 0 0-6.106-10.581z" transform="translate(-184.151 -538) translate(-22.101 147.85)"/>
        <path fill="#454545" d="M207.138 392.971a4.231 4.231 0 0 0-3.975 5.68 4.125 4.125 0 0 0 .311.668 4.233 4.233 0 0 0 7.831-1.381 4.012 4.012 0 0 0 0-1.469l2.778-.49a7 7 0 0 1 0 2.45 6.971 6.971 0 0 1-.316 1.189 7.055 7.055 0 1 1-6.629-9.468z" transform="translate(-184.151 -538) translate(-15.932 147.85)"/>
    </g>
</svg>
