<svg xmlns="http://www.w3.org/2000/svg" width="32" height="32" viewBox="0 0 32 32">
    <defs>
        <style>
            .cls-1{fill:#ea002c}
        </style>
    </defs>
    <g id="그룹_4657" transform="translate(-84 -701.475)">
        <path id="패스_1934" d="M-3328.824-990.845a8.616 8.616 0 0 0-8.607 8.607 8.617 8.617 0 0 0 8.607 8.608 8.617 8.617 0 0 0 8.607-8.608 8.616 8.616 0 0 0-8.607-8.607zm0 16.215a7.616 7.616 0 0 1-7.607-7.608 7.616 7.616 0 0 1 7.607-7.607 7.616 7.616 0 0 1 7.607 7.607 7.616 7.616 0 0 1-7.607 7.608z" class="cls-1" transform="translate(3427.358 1699.52)"/>
        <path id="패스_1935" d="M-3317.882-980.727a.506.506 0 0 0-.582.4 10.524 10.524 0 0 1-10.36 8.62 10.545 10.545 0 0 1-10.533-10.533 10.545 10.545 0 0 1 10.533-10.533 10.593 10.593 0 0 1 10.415 8.949.5.5 0 0 0 .569.42.5.5 0 0 0 .42-.568 11.6 11.6 0 0 0-11.4-9.8 11.546 11.546 0 0 0-11.533 11.533 11.546 11.546 0 0 0 11.533 11.533 11.523 11.523 0 0 0 11.344-9.44.5.5 0 0 0-.406-.581z" class="cls-1" transform="translate(3427.358 1699.52)"/>
        <path id="패스_1936" d="M-3311.982-982.36l-1.678-1.87a.5.5 0 0 0-.706-.038.5.5 0 0 0-.038.706l.93 1.036h-4.337a.5.5 0 0 0-.5.5.5.5 0 0 0 .5.5h4.369l-.922 1.074a.5.5 0 0 0 .054.705.5.5 0 0 0 .326.121.5.5 0 0 0 .379-.175l1.63-1.9a.5.5 0 0 0-.007-.659z" class="cls-1" transform="translate(3427.358 1699.52)"/>
        <path id="사각형_2126" fill="none" d="M0 0H32V32H0z" opacity="0.3" transform="translate(84 701.475)"/>
        <circle id="타원_383" cx="8.605" cy="8.605" r="8.605" class="cls-1" transform="translate(89.929 708.674)"/>
        <path id="패스_1937" fill="#fff" d="M-3325.232-985.387h-.819l-.586 2.755h-1.313l-.632-2.755h-.922l-.633 2.755h-1.312l-.6-2.755h-.866l.662 2.755h-.987v.614h1.135l.791 3.313h.95l.772-3.332h1.061l.763 3.332h.969l.772-3.313h1.136v-.614h-.987zm-5.575 5.8l-.512-2.467h1.052zm1.34-3.007l.41-1.862.41 1.862zm2.2 3.062l-.549-2.522h1.061z" transform="translate(3427.358 1699.52)"/>
    </g>
</svg>
