<svg xmlns="http://www.w3.org/2000/svg" width="32" height="32" viewBox="0 0 32 32">
    <defs>
        <style>
            .cls-1{fill:#ea002c}
        </style>
    </defs>
    <g id="그룹_4658" transform="translate(-20 -701.475)">
        <path id="패스_1903" d="M-341.178 2332.8l-11.493-10.682a.474.474 0 0 0-.346-.146.577.577 0 0 0-.327.129l-11.513 10.7a.508.508 0 0 0-.034.706l.012.014a.479.479 0 0 0 .676.021l1.936-1.8v11.735a.492.492 0 0 0 .484.5h6.054a.492.492 0 0 0 .484-.5v-5.381h4.451v5.381a.492.492 0 0 0 .484.5h6.059a.493.493 0 0 0 .484-.5v-11.735l1.935 1.8a.478.478 0 0 0 .327.129.481.481 0 0 0 .361-.164.508.508 0 0 0-.034-.707zm-3.557 10.176h-5.089v-5.381a.492.492 0 0 0-.484-.5h-5.418a.492.492 0 0 0-.484.5v5.381h-5.09v-12.135l8.282-7.7 8.282 7.7z" class="cls-1" transform="translate(389.018 -1616.385)"/>
        <path id="사각형_2125" fill="none" d="M0 0H32V32H0z" opacity="0.3" transform="translate(20 701.475)"/>
        <path id="패스_4912" d="M-3123.921-21336.437l-8.928 8.121.213 12.508h6.144l-.213-5.707h5.4l.213 5.707h5.891l-.213-12.508z" class="cls-1" transform="translate(3160 22042.748)"/>
    </g>
</svg>
