<svg xmlns="http://www.w3.org/2000/svg" width="24" height="24" viewBox="0 0 24 24">
    <path fill="#fff" d="M-3387.441-1446.7c-.207-.05-.581-.454-.581-1.661v-3.815a6.981 6.981 0 0 0-4.931-6.7l-.027-.007v-1.186a1.977 1.977 0 0 0-1.976-1.974 1.976 1.976 0 0 0-1.974 1.974v1.185l-.029.008a6.982 6.982 0 0 0-4.93 6.7v3.815c0 1.23-.387 1.626-.536 1.66a.947.947 0 0 0-.946.947.946.946 0 0 0 .946.945h4.636v.457a2.836 2.836 0 0 0 2.833 2.833 2.837 2.837 0 0 0 2.834-2.833v-.457h4.636a.946.946 0 0 0 .946-.945.948.948 0 0 0-.901-.946zm-8.489-13.369a.975.975 0 0 1 .974-.974.976.976 0 0 1 .976.974v.968c-.028-.005-.051 0-.079-.007a5.8 5.8 0 0 0-.811-.075h-.117a6.449 6.449 0 0 0-.869.08c-.026 0-.049 0-.074.007zm2.808 15.717a1.835 1.835 0 0 1-1.834 1.833 1.835 1.835 0 0 1-1.833-1.833v-.457h3.667zm-8.9-1.457c.447-.206 1.128-.808 1.128-2.552v-3.815a5.987 5.987 0 0 1 4.194-5.733l.384-.093a6.441 6.441 0 0 1 .693-.133c.026 0 .052 0 .078-.007a5.824 5.824 0 0 1 .6-.045 6.012 6.012 0 0 1 1.339.185l.023.005.359.087a5.986 5.986 0 0 1 4.2 5.734v3.815c0 1.744.681 2.346 1.128 2.552z" transform="translate(3407.371 1464.041)"/>
    <g/>
</svg>
