<svg xmlns="http://www.w3.org/2000/svg" id="그룹_175" width="23.275" height="23.1" viewBox="0 0 23.275 23.1">
    <defs>
        <style>
            .cls-1{fill:#007afe}
        </style>
    </defs>
    <path id="패스_147" d="M288.485 231.253h8.544a1.433 1.433 0 0 1 1.154 1.416v9.892a1.453 1.453 0 0 1-1.455 1.455H288a.48.48 0 0 0 .485-.485v-.485h8.243a.486.486 0 0 0 .485-.485v-9.892a.487.487 0 0 0-.378-.475h-8.35z" class="cls-1" transform="translate(-274.908 -220.916)"/>
    <path id="패스_148" d="M365.091 298.667a.485.485 0 1 1 0 .97h-1.94a.485.485 0 1 1 0-.97z" class="cls-1" transform="translate(-346.181 -285.265)"/>
    <path id="패스_149" d="M365.091 362.667a.485.485 0 0 1 0 .97h-1.94a.485.485 0 0 1 0-.97z" class="cls-1" transform="translate(-346.181 -346.356)"/>
    <path id="패스_150" d="M365.091 426.667a.485.485 0 0 1 0 .97h-1.94a.485.485 0 0 1 0-.97z" class="cls-1" transform="translate(-346.181 -407.446)"/>
    <path id="패스_151" d="M278.3 206.065a.485.485 0 1 1-.97 0v-13.577a.516.516 0 0 1 .175-.378.51.51 0 0 1 .407-.1l.388.078v13.974z" class="cls-1" transform="translate(-264.726 -183.45)"/>
    <path id="패스_152" d="M206.061 490.667v.485a.48.48 0 0 0 .485.485h-3.879a.48.48 0 0 0 .485-.485v-.485z" class="cls-1" transform="translate(-193.454 -468.537)"/>
    <path id="패스_153" d="M173.091 106.667a.485.485 0 1 1 0 .97h-1.94a.485.485 0 0 1 0-.97z" class="cls-1" transform="translate(-162.909 -101.993)"/>
    <path id="패스_154" d="M173.576 171.152a.48.48 0 0 1-.485.485h-1.94a.485.485 0 0 1 0-.97h1.94a.48.48 0 0 1 .485.485z" class="cls-1" transform="translate(-162.909 -163.084)"/>
    <path id="패스_155" d="M173.091 234.667a.485.485 0 1 1 0 .97h-1.94a.485.485 0 0 1 0-.97z" class="cls-1" transform="translate(-162.909 -224.174)"/>
    <path id="패스_156" d="M173.091 298.667a.485.485 0 1 1 0 .97h-1.94a.485.485 0 1 1 0-.97z" class="cls-1" transform="translate(-162.909 -285.265)"/>
    <path id="패스_157" d="M66.909 299.152a.48.48 0 0 1-.485.485h-1.94a.485.485 0 1 1 0-.97h1.94a.48.48 0 0 1 .485.485z" class="cls-1" transform="translate(-61.091 -285.265)"/>
    <path id="패스_158" d="M66.424 106.667a.485.485 0 1 1 0 .97h-1.94a.485.485 0 1 1 0-.97z" class="cls-1" transform="translate(-61.091 -101.993)"/>
    <path id="패스_159" d="M66.424 170.667a.485.485 0 1 1 0 .97h-1.94a.485.485 0 1 1 0-.97z" class="cls-1" transform="translate(-61.091 -163.084)"/>
    <path id="패스_160" d="M66.424 234.667a.485.485 0 1 1 0 .97h-1.94a.485.485 0 1 1 0-.97z" class="cls-1" transform="translate(-61.091 -224.174)"/>
    <path id="패스_161" d="M90.182 364.122a.486.486 0 0 0-.485-.485h-2.909a.48.48 0 0 0-.485.485v4.364h-.97v-4.364a1.453 1.453 0 0 1 1.455-1.455H89.7a1.453 1.453 0 0 1 1.455 1.455v4.364h-.97z" class="cls-1" transform="translate(-81.454 -346.356)"/>
    <path id="패스_162" d="M86.3 490.667h4.849v.485a.48.48 0 0 1-.485.485h-4.846a.48.48 0 0 1-.485-.485v-.485z" class="cls-1" transform="translate(-81.454 -468.537)"/>
    <path id="패스_163" d="M1.7 3.87l10.658-.019a1.449 1.449 0 0 1 1.222 1.435v7.2l-.388-.078a.51.51 0 0 0-.407.1.516.516 0 0 0-.175.378v-7.6a.49.49 0 0 0-.41-.486l-10.658.03a.268.268 0 0 0-.087-.01.458.458 0 0 0-.31.116.464.464 0 0 0-.175.369V25.5a.486.486 0 0 0 .485.485h2.424v.485a.48.48 0 0 0 .485.485H1.455A1.453 1.453 0 0 1 0 25.5V5.305A1.428 1.428 0 0 1 .514 4.2 1.455 1.455 0 0 1 1.7 3.87z" class="cls-1" transform="translate(0 -3.851)"/>
</svg>
