<svg id="그룹_839" data-name="그룹 839" xmlns="http://www.w3.org/2000/svg" width="14" height="14" viewBox="0 0 14 14">
  <g id="icon_-_check" data-name="icon - check" transform="translate(0)">
    <path id="패스_1968" data-name="패스 1968" d="M-3721.76-1436.56h-9.942a2.036,2.036,0,0,0-2.028,2.029v9.943a2.036,2.036,0,0,0,2.028,2.029h9.943a2.036,2.036,0,0,0,2.029-2.029v-9.943A2.036,2.036,0,0,0-3721.76-1436.56Zm1.035,11.971a1.038,1.038,0,0,1-1.034,1.034h-9.943a1.036,1.036,0,0,1-1.034-1.034v-9.943a1.036,1.036,0,0,1,1.033-1.034h9.944a1.038,1.038,0,0,1,1.034,1.034Z" transform="translate(3733.73 1436.56)" fill="#ff7a00"/>
  </g>
  <path id="패스_5175" data-name="패스 5175" d="M-3724.576-1432.545h-.056a.6.6,0,0,0-.374.175l-3.369,3.372-1.027-1.026a.6.6,0,0,0-.412-.162.615.615,0,0,0-.448.192.614.614,0,0,0,0,.84l1.453,1.453a.613.613,0,0,0,.866,0l3.8-3.8a.615.615,0,0,0,0-.867A.616.616,0,0,0-3724.576-1432.545Z" transform="translate(3734.281 1437.027)" fill="#ff7a00"/>
</svg>
