<svg xmlns="http://www.w3.org/2000/svg" width="16" height="16" viewBox="0 0 16 16">
    <g>
        <g fill="none">
            <path d="M8 0a8 8 0 1 1-8 8 8 8 0 0 1 8-8z" transform="translate(-31 -127) translate(31 127)"/>
            <path fill="#ff7a00" d="M8 1C4.14 1 1 4.14 1 8s3.14 7 7 7 7-3.14 7-7-3.14-7-7-7m0-1c4.418 0 8 3.582 8 8s-3.582 8-8 8-8-3.582-8-8 3.582-8 8-8z" transform="translate(-31 -127) translate(31 127)"/>
        </g>
        <path fill="#ff7a00" d="M80.232-28.34H80.2a.608.608 0 0 0-.4.177l-4.038 4.045-1.708-1.753a.6.6 0 0 0-.423-.17h-.009a.6.6 0 0 0-.429.184.613.613 0 0 0 0 .852l2.136 2.18a.61.61 0 0 0 .862 0l4.472-4.475a.606.606 0 0 0 .179-.431.608.608 0 0 0-.179-.431.607.607 0 0 0-.431-.178z" transform="translate(-31 -127) translate(-37.511 160.387)"/>
    </g>
</svg>
