<svg xmlns="http://www.w3.org/2000/svg" width="24.338" height="25.481" viewBox="0 0 24.338 25.481">
    <g stroke="#222">
        <g fill="none">
            <path stroke-linejoin="round" d="M103.087 241.63v1.708H84.75v-1.708a9.169 9.169 0 0 1 18.337 0z" transform="translate(-170.331 -258.119) translate(170.831 258.619) translate(-84.75 -221.086)"/>
            <path d="M158.858 68.5a4.645 4.645 0 1 1-3.278-1.354 4.645 4.645 0 0 1 3.278 1.354z" transform="translate(-170.331 -258.119) translate(170.831 258.619) translate(-146.381 -67.149)"/>
        </g>
        <g fill="#fff">
            <path stroke-linejoin="round" d="M95.888 238.03v1.038H84.75v-1.038a5.569 5.569 0 0 1 11.138 0z" transform="translate(-170.331 -258.119) translate(183.03 269.584) translate(-84.75 -225.552)"/>
            <path d="M155.748 67.971a2.822 2.822 0 1 1-1.991-.822 2.821 2.821 0 0 1 1.991.822z" transform="translate(-170.331 -258.119) translate(183.03 269.584) translate(-148.169 -67.149)"/>
        </g>
    </g>
</svg>
