<svg xmlns="http://www.w3.org/2000/svg" width="18" height="18" viewBox="0 0 18 18">
    <g transform="translate(-307 -400)">
        <circle cx="9" cy="9" r="9" fill="#a3a3a3" transform="translate(307 400)"/>
        <path fill="#fff" d="M84.013-28.34h-.051a.927.927 0 0 0-.6.27L77.2-21.9l-2.6-2.672a.919.919 0 0 0-.644-.26h-.013a.921.921 0 0 0-.654.28.935.935 0 0 0 0 1.3l3.257 3.324a.93.93 0 0 0 1.315 0l6.811-6.82a.924.924 0 0 0 .272-.657.927.927 0 0 0-.272-.657.926.926 0 0 0-.659-.278z" transform="translate(237.017 433.001)"/>
    </g>
</svg>
