<svg xmlns="http://www.w3.org/2000/svg" width="28" height="28" viewBox="0 0 28 28">
    <g>
        <g transform="translate(-143.25 -152.25) translate(144.25 153.249)">
            <circle cx="13" cy="13" r="13" fill="#ff7a00" transform="translate(0 0)"/>
            <path fill="#fff" d="M88.334-28.34h-.071a1.437 1.437 0 0 0-.843.308l-8.577 7.039-3.627-3.05a1.441 1.441 0 0 0-.9-.3H74.3a1.433 1.433 0 0 0-.911.319.935.935 0 0 0 0 1.483l4.537 3.794a1.506 1.506 0 0 0 1.832 0l9.49-7.786a.969.969 0 0 0 .38-.75.972.972 0 0 0-.38-.75 1.448 1.448 0 0 0-.914-.307z" transform="translate(-68.084 36.323)"/>
        </g>
        <path fill="none" d="M0 0H28V28H0z" transform="translate(-143.25 -152.25) translate(143.25 152.25)"/>
    </g>
</svg>
