<svg xmlns="http://www.w3.org/2000/svg" id="그룹_443" width="37.322" height="34.068" viewBox="0 0 37.322 34.068">
    <defs>
        <style>
            .cls-1{fill:#222}.cls-2{isolation:isolate}.cls-3{fill:#ff7a00}
        </style>
    </defs>
    <g id="그룹_450">
        <path id="사각형_1689" d="M0 0H3.123V1.282H0z" class="cls-1" transform="translate(8.057 29.844)"/>
        <path id="패스_1821" d="M166.028 2640.568a1.325 1.325 0 0 1-1.324-1.324v-28.854a1.327 1.327 0 0 1 1.324-1.324h14.823a1.326 1.326 0 0 1 1.324 1.324v2.869h1.283v-2.869a2.615 2.615 0 0 0-2.607-2.607h-14.823a2.613 2.613 0 0 0-2.606 2.607v28.854a2.615 2.615 0 0 0 2.606 2.606h14.823a2.616 2.616 0 0 0 2.607-2.606v-2.867h-1.283v2.867a1.325 1.325 0 0 1-1.324 1.324z" class="cls-1" transform="translate(-163.422 -2607.782)"/>
    </g>
    <g id="_" class="cls-2" transform="translate(14.477 15.226)">
        <g id="그룹_845" class="cls-2">
            <path id="패스_1982" d="M-3730.226-1386.8l.655-1.116-1.157-.491.2-.625 1.229.287.113-1.28h.666l.112 1.28 1.229-.287.205.625-1.157.491.666 1.116-.533.39-.85-.993-.851.993z" class="cls-3" transform="translate(3730.728 1390.028)"/>
            <path id="패스_1983" d="M-3721.317-1386.8l.656-1.116-1.158-.491.2-.625 1.229.287.113-1.28h.666l.113 1.28 1.229-.287.2.625-1.158.491.666 1.116-.533.39-.85-.993-.85.993z" class="cls-3" transform="translate(3726.887 1390.028)"/>
            <path id="패스_1984" d="M-3712.406-1386.8l.655-1.116-1.158-.491.2-.625 1.229.287.112-1.28h.666l.112 1.28 1.229-.287.2.625-1.157.491.665 1.116-.533.39-.85-.993-.85.993z" class="cls-3" transform="translate(3723.045 1390.028)"/>
            <path id="패스_1985" d="M-3703.5-1386.8l.656-1.116-1.157-.491.2-.625 1.229.287.113-1.28h.665l.113 1.28 1.229-.287.2.625-1.157.491.666 1.116-.533.39-.85-.993-.85.993z" class="cls-3" transform="translate(3719.203 1390.028)"/>
        </g>
    </g>
    <g id="그룹_847" transform="translate(10.018 12.199)">
        <path id="패스_1986" d="M-3711.263-1384.936h-27.3v-9.67h27.3zm-26.166-1.138h25.029v-7.395h-25.029z" class="cls-3" transform="translate(3738.567 1394.606)"/>
    </g>
</svg>
