<svg xmlns="http://www.w3.org/2000/svg" id="Check_Circle_-_blue" width="22" height="22" viewBox="0 0 22 22">
    <defs>
        <style>
            .cls-3{fill:none}
        </style>
    </defs>
    <g id="그룹_842" transform="translate(2 2)">
        <g id="타원_117" fill="none" stroke="#fff">
            <circle cx="9" cy="9" r="9" stroke="none"/>
            <circle cx="9" cy="9" r="8.5" class="cls-3"/>
        </g>
        <path id="패스_1930" fill="#fff" d="M83.078-28.34h-.047a.84.84 0 0 0-.553.252l-5.632 5.773-2.382-2.5a.831.831 0 0 0-.589-.243h-.012a.834.834 0 0 0-.6.262.89.89 0 0 0 0 1.216l2.979 3.112a.837.837 0 0 0 1.2 0l6.232-6.385a.875.875 0 0 0 .249-.615.878.878 0 0 0-.249-.615.838.838 0 0 0-.596-.257z" transform="translate(-69.477 33.278)"/>
    </g>
    <path id="사각형_2130" d="M0 0H22V22H0z" class="cls-3"/>
</svg>
