<svg xmlns="http://www.w3.org/2000/svg" width="23.857" height="32.03" viewBox="0 0 23.857 32.03">
    <g>
        <path fill="#222" d="M-2728.087 34.206h-1.353v-4.418a7.851 7.851 0 0 0-7.842-7.842 7.851 7.851 0 0 0-7.842 7.842v4.418h-1.353a2.737 2.737 0 0 0-2.734 2.733v14.3a2.737 2.737 0 0 0 2.734 2.733h18.39a2.736 2.736 0 0 0 2.733-2.733v-14.3a2.736 2.736 0 0 0-2.733-2.733zm-15.656-4.418a6.468 6.468 0 0 1 6.461-6.461 6.469 6.469 0 0 1 6.461 6.461v4.418h-12.923zm17.009 21.455a1.354 1.354 0 0 1-1.353 1.353h-18.39a1.355 1.355 0 0 1-1.353-1.353v-14.3a1.355 1.355 0 0 1 1.353-1.353h18.39a1.354 1.354 0 0 1 1.353 1.353z" transform="translate(2749.211 -21.946)"/>
        <path fill="#ff7a00" d="M-2725.23 62.038a2.4 2.4 0 0 0-2.393 2.393 2.386 2.386 0 0 0 1.5 2.216l.206.085v3.488a.692.692 0 0 0 .69.691.691.691 0 0 0 .69-.691v-3.488l.206-.084a2.386 2.386 0 0 0 1.5-2.217 2.4 2.4 0 0 0-2.399-2.393zm0 3.406a1.014 1.014 0 0 1-1.012-1.012 1.014 1.014 0 0 1 1.012-1.012 1.013 1.013 0 0 1 1.012 1.012 1.014 1.014 0 0 1-1.012 1.012z" transform="translate(2749.211 -21.946) translate(-12.052 -22.383)"/>
    </g>
</svg>
