<svg xmlns="http://www.w3.org/2000/svg" id="icon_-_check" width="12" height="12" viewBox="0 0 12 12">
    <defs>
        <style>
            .cls-1{fill:#a3a3a3}
        </style>
    </defs>
    <path id="패스_1968" d="M-3723.47-1436.56h-8.522a1.745 1.745 0 0 0-1.739 1.739v8.522a1.745 1.745 0 0 0 1.739 1.739h8.523a1.745 1.745 0 0 0 1.739-1.739v-8.522a1.745 1.745 0 0 0-1.74-1.739zm.887 10.261a.89.89 0 0 1-.886.886h-8.523a.888.888 0 0 1-.886-.886v-8.522a.888.888 0 0 1 .885-.886h8.523a.89.89 0 0 1 .886.886z" class="cls-1" transform="translate(3733.73 1436.56)"/>
    <path id="패스_1969" d="M-3724.576-1432.545h-.056a.6.6 0 0 0-.374.175l-3.369 3.372-1.027-1.026a.6.6 0 0 0-.412-.162.615.615 0 0 0-.448.192.614.614 0 0 0 0 .84l1.453 1.453a.613.613 0 0 0 .866 0l3.8-3.8a.615.615 0 0 0 0-.867.616.616 0 0 0-.433-.177z" class="cls-1" transform="translate(3733.203 1436.034)"/>
</svg>
