<svg xmlns="http://www.w3.org/2000/svg" width="24.337" height="25.483" viewBox="0 0 24.337 25.483">
    <defs>
        <style>
            .cls-1{fill:#007afe}
        </style>
    </defs>
    <g id="그룹_2531" transform="translate(4282.279 -532.943)">
        <path id="패스_3507" d="M-4272.58 543.23a5.125 5.125 0 0 0 3.645-1.512 5.151 5.151 0 0 0-.014-7.276 5.11 5.11 0 0 0-3.631-1.5 5.176 5.176 0 0 0-3.645 1.515 5.108 5.108 0 0 0-1.5 3.64 5.107 5.107 0 0 0 1.514 3.635 5.131 5.131 0 0 0 3.631 1.498zm-2.937-8.067a4.171 4.171 0 0 1 2.937-1.22 4.12 4.12 0 0 1 2.925 1.208 4.151 4.151 0 0 1 .012 5.862 4.15 4.15 0 0 1-5.862.011 4.149 4.149 0 0 1-.012-5.861z" class="cls-1"/>
        <path id="패스_3508" d="M-4263.519 550.845c-.04-.109-.079-.218-.123-.325a3.291 3.291 0 0 0 2-.943 3.328 3.328 0 0 0-.011-4.7 3.4 3.4 0 0 0-4.7.011 3.3 3.3 0 0 0-.774 1.264 9.569 9.569 0 0 0-5.389-1.735 9.541 9.541 0 0 0-6.866 2.759 9.61 9.61 0 0 0-2.9 6.813v1.711a.5.5 0 0 0 .5.5h11.741a6.089 6.089 0 0 0-.042.691v1.037a.5.5 0 0 0 .5.5h11.138a.5.5 0 0 0 .5-.5v-1.037a6.074 6.074 0 0 0-5.574-6.046zm4.577 6.581h-10.138v-.537a4.883 4.883 0 0 1 .07-.691 5.04 5.04 0 0 1 .242-1 5.052 5.052 0 0 1 4.517-3.354c.081 0 .158-.024.24-.024a5.015 5.015 0 0 1 .809.082 5.065 5.065 0 0 1 4.26 4.987zm-7.333-10.605a2.3 2.3 0 0 1 .637-1.227 2.311 2.311 0 0 1 1.646-.683 2.308 2.308 0 0 1 1.638.676 2.325 2.325 0 0 1 .007 3.285 2.309 2.309 0 0 1-1.64.683h-.005c-.035 0-.067-.008-.1-.01a2.3 2.3 0 0 1-1.536-.667 2.3 2.3 0 0 1-.684-1.64 2.311 2.311 0 0 1 .037-.417zm-15 8.377v-1.2a8.606 8.606 0 0 1 2.6-6.1 8.681 8.681 0 0 1 6.156-2.474 8.589 8.589 0 0 1 5.207 1.839 3.3 3.3 0 0 0 .978 2.33 3.269 3.269 0 0 0 1.576.866c.061.131.12.262.175.4a6.078 6.078 0 0 0-5.251 4.349z" class="cls-1"/>
    </g>
</svg>
