<svg xmlns="http://www.w3.org/2000/svg" width="26.185" height="21.546" viewBox="0 0 26.185 21.546">
    <defs>
        <style>
            .cls-1{fill:#222}
        </style>
    </defs>
    <g id="그룹_2707" transform="translate(4336.949 -626.202)">
        <path id="패스_3534" d="M-4323.853 631.707a6.4 6.4 0 0 0-6.384 6.384 6.4 6.4 0 0 0 6.385 6.382 6.4 6.4 0 0 0 6.382-6.382 6.4 6.4 0 0 0-6.383-6.384zm0 11.532a5.167 5.167 0 0 1-5.15-5.151 5.167 5.167 0 0 1 5.149-5.15 5.165 5.165 0 0 1 5.149 5.15 5.166 5.166 0 0 1-5.147 5.151z" class="cls-1"/>
        <path id="패스_3535" d="M-4314.792 632.367a.951.951 0 0 0-.679.281.96.96 0 0 0-.284.683.967.967 0 0 0 .964.967.967.967 0 0 0 .966-.965.965.965 0 0 0-.967-.966z" class="cls-1"/>
        <path id="패스_3536" d="M-4313.689 628.922h-4.406l-.065-.335a2.932 2.932 0 0 0-2.876-2.385h-5.643a2.931 2.931 0 0 0-2.875 2.384l-.061.336h-4.409a2.935 2.935 0 0 0-2.925 2.925v12.976a2.935 2.935 0 0 0 2.926 2.925h20.338a2.936 2.936 0 0 0 2.921-2.925v-12.976a2.934 2.934 0 0 0-2.925-2.925zm1.7 15.9a1.7 1.7 0 0 1-1.692 1.692h-20.34a1.7 1.7 0 0 1-1.693-1.692v-12.976a1.7 1.7 0 0 1 1.693-1.692h4.922a.619.619 0 0 0 .606-.5l.158-.837a1.7 1.7 0 0 1 1.663-1.382h5.643a1.7 1.7 0 0 1 1.665 1.378l.156.84a.618.618 0 0 0 .607.5h4.919a1.7 1.7 0 0 1 1.693 1.692z" class="cls-1"/>
    </g>
</svg>
