<svg xmlns="http://www.w3.org/2000/svg" width="23.958" height="19.22" viewBox="0 0 23.958 19.22">
    <g>
        <path fill="#222" d="M-4403.528 630.2h-9.4a.252.252 0 0 1-.235-.165 4.219 4.219 0 0 0-3.941-2.776h-4.682a2.853 2.853 0 0 0-2.85 2.85v13.521a2.853 2.853 0 0 0 2.85 2.849h18.261a2.854 2.854 0 0 0 2.847-2.847v-10.588a2.83 2.83 0 0 0-.835-2.015 2.828 2.828 0 0 0-2.015-.829zm1.768 13.434a1.771 1.771 0 0 1-1.767 1.765h-18.261a1.771 1.771 0 0 1-1.766-1.765V630.1a1.771 1.771 0 0 1 1.765-1.765h4.687a3.129 3.129 0 0 1 3.045 2.506l.087.435h10.443a1.77 1.77 0 0 1 1.767 1.766z" transform="translate(4424.638 -627.254)"/>
    </g>
</svg>
