<svg xmlns="http://www.w3.org/2000/svg" width="24" height="24" viewBox="0 0 24 24">
    <g>
        <g>
            <path d="M-3413.553-1457.4h-3.464l.247-.206a2.736 2.736 0 0 0 .98-2.033 2.5 2.5 0 0 0-2.5-2.481h-.059c-1.267 0-2.232.787-2.869 2.339l-.108.263-.108-.263c-.637-1.552-1.6-2.338-2.869-2.338h-.057a2.5 2.5 0 0 0-2.5 2.44v.043a2.73 2.73 0 0 0 .979 2.031l.247.206h-3.464a1.548 1.548 0 0 0-1.538 1.549v2.771a1.536 1.536 0 0 0 1.383 1.532l.1.01v8.172a1.548 1.548 0 0 0 1.537 1.554h12.568a1.549 1.549 0 0 0 1.537-1.549v-8.172l.1-.01a1.535 1.535 0 0 0 1.383-1.533v-2.776a1.547 1.547 0 0 0-1.525-1.549zm-12.216-2.23a1.417 1.417 0 0 1 1.413-1.391h.033l.011.118h.01v-.117c1.548 0 2.13 2.168 2.34 3.459l.022.138h-.139a5.624 5.624 0 0 1-2.8-.784 1.755 1.755 0 0 1-.89-1.421zm3.9 16.72h-5.74a.45.45 0 0 1-.448-.45v-8.167h6.188zm0-9.715h-7.228a.445.445 0 0 1-.317-.132.442.442 0 0 1-.131-.317v-2.777a.451.451 0 0 1 .447-.45h7.229zm1.179-4.933c.208-1.292.787-3.458 2.339-3.462a1.365 1.365 0 0 1 1.014.372 1.409 1.409 0 0 1 .455.981v.039a1.762 1.762 0 0 1-.893 1.422 5.628 5.628 0 0 1-2.8.783h-.139zm6.094 14.2a.45.45 0 0 1-.442.45h-5.745v-8.617h6.187zm1.491-12.38v2.661a.45.45 0 0 1-.447.45h-7.231v-3.675h7.231a.444.444 0 0 1 .315.13.449.449 0 0 1 .133.318v.116z" transform="translate(-5150 1) translate(8583.325 1463.118)"/>
        </g>
    </g>
</svg>
