<svg xmlns="http://www.w3.org/2000/svg" width="76" height="76" viewBox="0 0 76 76">
    <g>
        <g transform="translate(-141 -221) translate(-1 -36)">
            <circle cx="35" cy="35" r="35" fill="#e4f4fd" transform="translate(145 260)"/>
            <g>
                <g fill="#1cb9ff">
                    <path d="M-3430.724-1455.839h-4.233a3.883 3.883 0 0 0 1.366-2.87 3.571 3.571 0 0 0-3.58-3.535h-.06c-1.788 0-3.146 1.1-4.039 3.256-.892-2.16-2.251-3.255-4.075-3.255h-.041a3.584 3.584 0 0 0-3.561 3.481v.064a3.864 3.864 0 0 0 1.365 2.86h-4.235a2.269 2.269 0 0 0-2.255 2.271v3.758a2.259 2.259 0 0 0 2.02 2.25v10.93a2.271 2.271 0 0 0 2.254 2.28h17.054a2.27 2.27 0 0 0 2.254-2.271v-10.934a2.25 2.25 0 0 0 2.018-2.247v-3.766a2.269 2.269 0 0 0-2.252-2.272zm-1.585 8.307v10.911a.443.443 0 0 1-.434.441h-7.623v-11.352zm-7.929-8.337c.273-1.7 1.029-4.537 3.015-4.542h.1a1.689 1.689 0 0 1 1.145.464 1.735 1.735 0 0 1 .563 1.209v.039a2.226 2.226 0 0 1-1.127 1.8 7.482 7.482 0 0 1-3.696 1.03zm9.952 2.282v3.778a.441.441 0 0 1-.437.444h-9.641v-4.648h9.641a.436.436 0 0 1 .31.129.43.43 0 0 1 .127.297zm-11.892 6.055v11.352h-7.618a.44.44 0 0 1-.438-.441v-10.911zm-2.962-12.873c1.844.157 2.568 2.882 2.837 4.533a7.5 7.5 0 0 1-3.705-1.042 2.217 2.217 0 0 1-1.122-1.785 1.743 1.743 0 0 1 1.639-1.71zm2.962 6.4v4.646h-9.637a.423.423 0 0 1-.309-.128.429.429 0 0 1-.128-.31v-3.768a.44.44 0 0 1 .436-.44z" transform="translate(-4.5 -4.5) translate(169 282.999) translate(3457.272 1464.049)"/>
                </g>
            </g>
        </g>
        <path fill="none" d="M0 0H76V76H0z" transform="translate(-141 -221) translate(141 221)"/>
    </g>
</svg>
