<svg xmlns="http://www.w3.org/2000/svg" width="32" height="32" viewBox="0 0 32 32">
    <defs>
        <style>
            .cls-2{fill:#595959}
        </style>
    </defs>
    <g id="그룹_2551" transform="translate(-125 -434)">
        <g id="그룹_655" transform="translate(129.534 438.336)">
            <path id="패스_1899" fill="#f97702" stroke="rgba(0,0,0,0)" stroke-miterlimit="10" d="M116.468 2484.883l-.175-.077.089-.169a2.383 2.383 0 0 0 .267-1.088 2 2 0 0 0-2.163-2.1 6.389 6.389 0 0 0-3.755 1.5l-.164.152-.042-.053a.32.32 0 0 0-.076-.067.788.788 0 0 0-.376-.094h-1.589a.817.817 0 0 0-.41.114l-.109.063-.1-.084a6.5 6.5 0 0 0-3.794-1.53 2 2 0 0 0-2.164 2.1 2.4 2.4 0 0 0 .262 1.092l.086.168-.173.077a1 1 0 0 0-.594.914v1.244a1 1 0 0 0 .66.937l.118.044v8a1 1 0 0 0 1 1h12.018a1 1 0 0 0 1-1v-8l.117-.044a1 1 0 0 0 .661-.937v-1.245a1 1 0 0 0-.594-.917zm-14.126 2.307v-1.538h4.712v1.538zm5.311 8.979h-4.533v-8.124h4.532zm0-11.374h-3.995a1.013 1.013 0 0 1-.513-.253 1.035 1.035 0 0 1-.142-.159 1.515 1.515 0 0 1-.242-.836 1.154 1.154 0 0 1 1.308-1.248 5.674 5.674 0 0 1 3.27 1.349l.314.266zm.855-1.059h1.539v1.059h-1.539zm1.539 12.433h-1.539v-8.124h1.539zm.6-8.979h-2.737v-1.538h2.737zm.256-3.337l.032-.018a3.653 3.653 0 0 0 .319-.217l.025-.018a5.618 5.618 0 0 1 3.207-1.3 1.153 1.153 0 0 1 1.308 1.248 1.525 1.525 0 0 1-.226.8l-.029.045-.014.021a.914.914 0 0 1-.331.3.224.224 0 0 1-.021.012c-.006 0-.017.005-.025.008a1.191 1.191 0 0 1-.127.035 1.171 1.171 0 0 1-.249.028H110.9zm4.532 12.316H110.9v-8.124h4.532zm.778-8.979H111.5v-1.538h4.712z" transform="translate(-98.096 -2481.444)"/>
            <g id="그룹_603" transform="translate(0 14.725)">
                <path id="패스_1898" d="M113.326 2513.125c-.693.209-2.574.889-4.1 1.454l-.111.041.027-.115c0-.015.009-.087.01-.1.005-.065.01-.143.009-.159a1.953 1.953 0 0 0-.072-.605 1.929 1.929 0 0 0-1.027-1.194l-3.994-1.877a.056.056 0 0 0-.027-.006l-9.193-.005a.063.063 0 0 0-.063.063v8.874a.063.063 0 0 0 .063.063h4.718a.063.063 0 0 0 .063-.063v-1.828l.084.029 8.4 2.883a.057.057 0 0 0 .05 0l9.346-5.052a.062.062 0 0 0 .029-.077l-.11-.3a3.246 3.246 0 0 0-4.102-2.026zm-14.555 5.58h-3.134v-7.291h3.135zm17.635-3.559l-8.35 4.513-.026-.009-8.4-2.885v-5.344h.064l4.212.019 3.793 1.783a1.071 1.071 0 0 1 .548 1.344 1.158 1.158 0 0 1-.078.167l.01.007-.052.055a.078.078 0 0 0-.012.013 1.065 1.065 0 0 1-.424.357.311.311 0 0 1-.044.018 1.037 1.037 0 0 1-.326.078 1.1 1.1 0 0 1-.533-.094l-3.477-1.621a.427.427 0 1 0-.362.774l3.478 1.622a1.913 1.913 0 0 0 .733.175c.031 0 .183.006.183.006a1.593 1.593 0 0 0 .349-.057c.074-.021.283-.095.359-.123l.049-.027c.018-.01.026-.016.04-.022l.025-.008h.012l.167-.063c1.625-.61 4.36-1.614 5.232-1.878a2.342 2.342 0 0 1 2.849 1.1l.041.07z" class="cls-2" transform="translate(-94.782 -2510.56)"/>
                <rect id="사각형_1741" width=".855" height="1.261" class="cls-2" rx=".125" transform="translate(1.995 5.794)"/>
            </g>
        </g>
        <path id="사각형_2088" fill="none" d="M0 0H32V32H0z" transform="translate(125 434)"/>
    </g>
</svg>
