<svg xmlns="http://www.w3.org/2000/svg" width="32" height="32" viewBox="0 0 32 32">
    <defs>
        <style>
            .cls-1{fill:#595959}.cls-2{fill:#f97702;stroke:transparent;stroke-miterlimit:10}
        </style>
    </defs>
    <g id="그룹_2549" transform="translate(-285 -434)">
        <g id="그룹_681" transform="translate(-152.561 -2059.285)">
            <g id="그룹_410" transform="translate(445.433 2501.098)">
                <g id="그룹_408" transform="translate(5.127 5.838)">
                    <g id="패스_1743">
                        <path id="패스_1912" d="M450.253 2508.019l-.447-2.123h.8l.386 2.123h.684l.532-2.123h.717l.512 2.123h.684l.419-2.123h.8l-.478 2.123h.7v.552h-.824l-.419 1.874h-.931l-.465-1.874h-.758l-.458 1.874h-.93l-.406-1.874h-.791v-.552zm1.283.552h-.447l.187 1.03zm1.256-.552l-.246-.982-.239.982zm1.216.552h-.447l.246 1.017z" class="cls-1" transform="translate(-449.586 -2505.896)"/>
                    </g>
                </g>
                <g id="그룹_409">
                    <g id="그룹_681-2">
                        <path id="패스_1913" d="M453.113 2500.672a8.115 8.115 0 1 0 8.116 8.115 8.124 8.124 0 0 0-8.116-8.115zm0 15.385a7.271 7.271 0 1 1 7.272-7.271 7.279 7.279 0 0 1-7.272 7.271z" class="cls-1" transform="translate(-444.998 -2500.672)"/>
                    </g>
                    <g id="패스_1745" transform="translate(2.044 2.044)">
                        <path id="패스_1914" d="M452.9 2502.5a6.071 6.071 0 1 0 6.071 6.071 6.078 6.078 0 0 0-6.071-6.071zm0 11.315a5.245 5.245 0 1 1 5.245-5.245 5.245 5.245 0 0 1-5.245 5.246z" class="cls-1" transform="translate(-446.827 -2502.501)"/>
                    </g>
                    <g id="패스_1748" transform="translate(16.09 6.746)">
                        <path id="패스_1915" d="M459.4 2506.708a.634.634 0 0 0 .013.078.311.311 0 0 0-.013-.078z" class="cls-1" transform="translate(-459.395 -2506.708)"/>
                    </g>
                    <g id="패스_1749" transform="translate(15.273 6.893)">
                        <path id="패스_1916" d="M458.677 2506.917a.464.464 0 0 0-.013-.077.457.457 0 0 0 .013.077z" class="cls-1" transform="translate(-458.664 -2506.84)"/>
                    </g>
                </g>
            </g>
            <g id="그룹_682" transform="translate(441.295 2497.053)">
                <path id="패스_1917" d="M453.459 2498.17a11.03 11.03 0 0 1 8.54 4.065l-1.195-.109a.571.571 0 0 0-.608.5.56.56 0 0 0 .506.608l2.521.232h.051a.558.558 0 0 0 .555-.507l.234-2.521a.558.558 0 0 0-.505-.608.575.575 0 0 0-.608.505l-.107 1.163a12.149 12.149 0 0 0-21.549 7.711.559.559 0 1 0 1.118 0 11.058 11.058 0 0 1 11.047-11.039z" class="cls-2" transform="translate(-441.295 -2497.053)"/>
                <path id="패스_1918" d="M464.672 2507.673a.558.558 0 0 0-.559.559 11.032 11.032 0 0 1-19.585 6.981l1.192.111a.552.552 0 0 0 .608-.507.559.559 0 0 0-.505-.608l-2.521-.232a.575.575 0 0 0-.608.507l-.234 2.52a.56.56 0 0 0 .506.608h.051a.559.559 0 0 0 .557-.507l.107-1.164a12.149 12.149 0 0 0 21.549-7.711.558.558 0 0 0-.558-.557z" class="cls-2" transform="translate(-441.158 -2495.804)"/>
            </g>
        </g>
        <path id="사각형_2090" fill="none" d="M0 0H32V32H0z" transform="translate(285 434)"/>
    </g>
</svg>
