<svg xmlns="http://www.w3.org/2000/svg" width="43.194" height="13.95" viewBox="0 0 43.194 13.95">
    <path fill="#fff" d="M153.879 206.338l-5.655 13.492h-3.689l-2.783-10.767a1.477 1.477 0 0 0-.829-1.185 14.594 14.594 0 0 0-3.443-1.148l.082-.391h5.938a1.626 1.626 0 0 1 1.609 1.375l1.47 7.808 3.633-9.183zm14.456 9.087c.016-3.56-4.924-3.757-4.89-5.348.011-.484.472-1 1.48-1.13a6.588 6.588 0 0 1 3.441.6l.613-2.861a9.377 9.377 0 0 0-3.266-.6c-3.45 0-5.878 1.834-5.9 4.46-.023 1.943 1.733 3.026 3.056 3.672 1.359.661 1.815 1.085 1.81 1.677-.01.906-1.085 1.3-2.089 1.321a7.3 7.3 0 0 1-3.585-.852l-.632 2.957a10.57 10.57 0 0 0 3.881.717c3.667 0 6.065-1.811 6.076-4.616m9.11 4.405h3.228l-2.818-13.492h-2.979a1.588 1.588 0 0 0-1.486.99l-5.237 12.5h3.664l.728-2.016h4.477zm-3.895-4.78l1.837-5.066 1.058 5.066zm-14.684-8.711l-2.881 13.494h-3.49l2.887-13.492z" transform="translate(-137.48 -206.091)"/>
</svg>
