<svg xmlns="http://www.w3.org/2000/svg" width="32" height="32" viewBox="0 0 32 32">
    <defs>
        <style>
            .cls-1{fill:#f97702;stroke:transparent;stroke-miterlimit:10}.cls-2{fill:#595959}
        </style>
    </defs>
    <g id="그룹_2550" transform="translate(-204 -434)">
        <g id="그룹_654" transform="translate(209.288 439.063)">
            <g id="그룹_594">
                <g id="그룹_593" transform="translate(5.417 16.953)">
                    <path id="패스_1880" d="M3.933 2671.3h.843v-1.664h1.36V2669H4.777v-1.135h1.746v-.636h-2.59z" class="cls-1" transform="translate(-3.933 -2667.229)"/>
                    <path id="패스_1881" d="M12.507 2669.486a1.027 1.027 0 0 0 .725-1.044q0-1.213-1.467-1.213H10.3v4.075h.843v-1.6h.594l.808 1.6h.969l-1.01-1.787zm-.312-.5a.728.728 0 0 1-.532.163h-.523v-1.294h.517a.789.789 0 0 1 .538.149.622.622 0 0 1 .163.481.684.684 0 0 1-.163.499z" class="cls-1" transform="translate(-7.101 -2667.229)"/>
                    <path id="패스_1882" d="M18.461 2669.529h1.384v-.63h-1.384v-1.033h1.77v-.636h-2.613v4.075h2.655v-.648h-1.812z" class="cls-1" transform="translate(-10.739 -2667.229)"/>
                    <path id="패스_1883" d="M25.15 2669.529h1.384v-.63H25.15v-1.033h1.77v-.636h-2.613v4.075h2.655v-.648H25.15z" class="cls-1" transform="translate(-14.066 -2667.229)"/>
                </g>
                <path id="패스_1884" d="M26.768 2655.526l-1.316-.156.607-2.351a.371.371 0 0 0-.653-.321l-2.72 3.511a.373.373 0 0 0-.048.372.369.369 0 0 0 .3.225l1.329.157-.093.375h.765l.151-.6a.371.371 0 0 0-.317-.458l-1.1-.13 1.214-1.567-.262 1.017a.37.37 0 0 0 .316.461l1.091.13-.88 1.152h.934l.931-1.219a.371.371 0 0 0-.252-.594z" class="cls-2" transform="translate(-7.805 -2642.978)"/>
                <path id="패스_1885" d="M10.3 2640.308a6.548 6.548 0 0 0-3.7 1.137v-4.764c0-1.565-2.086-2.85-5.072-3.123l-.11-.008c-.153-.012-.308-.025-.465-.032q-.308-.015-.619-.015c-.207 0-.413 0-.618.015-.16.007-.314.02-.469.033l-.108.007c-2.987.273-5.072 1.559-5.072 3.123v5.214a1.953 1.953 0 0 0 .324 1.037 2.529 2.529 0 0 0-1.235 1.924v2.552a1.952 1.952 0 0 0 .451 1.22 3.192 3.192 0 0 0 .544.537l.164.116.01.008a.455.455 0 0 1 .083.066v.847a1.957 1.957 0 0 0 .451 1.22 3.251 3.251 0 0 0 .549.541c.062.048.129.091.193.135v-1.158a1.153 1.153 0 0 1-.319-.737v-.38c.081.036.164.068.249.1l.07.028v-.924a3.043 3.043 0 0 1-1.508-1.3.912.912 0 0 1-.06-.318v-.883l.3.21c.078.056.165.108.25.16a6.289 6.289 0 0 0 1.113.534 10.19 10.19 0 0 0 1.659.429h7.452a5.557 5.557 0 0 1 5.489-6.556 5.577 5.577 0 0 1 3.462 9.953v1.213a6.572 6.572 0 0 0-3.46-12.164zm-13.778-5.225l.051-.021a9.819 9.819 0 0 1 3.761-.687 9.81 9.81 0 0 1 3.747.68l.066.027c1.005.441 1.581 1.023 1.581 1.6a1.042 1.042 0 0 1-.168.535 1.781 1.781 0 0 1-.272.34 3.1 3.1 0 0 1-.345.279c-.036.026-.074.051-.109.074-.093.062-.2.121-.3.18l-.05.024c-.114.058-.2.1-.287.14l-.114.051a7.636 7.636 0 0 1-1.087.361l-.183.045c-.112.026-.223.052-.342.074-.176.033-.356.064-.541.091l-.209.025q-.239.029-.486.048l-.205.014c-.228.014-.458.022-.693.022s-.464-.009-.693-.022l-.2-.014c-.165-.013-.327-.028-.486-.048l-.21-.025c-.185-.026-.364-.057-.54-.091-.118-.023-.231-.049-.342-.074l-.183-.045a7.522 7.522 0 0 1-1.088-.361l-.115-.051c-.09-.04-.173-.083-.255-.125l-.074-.039c-.108-.059-.212-.118-.306-.18l-.089-.062a3.082 3.082 0 0 1-.363-.3 1.741 1.741 0 0 1-.272-.339 1.043 1.043 0 0 1-.168-.535c-.013-.568.562-1.15 1.567-1.591zm-1.581 3.27l.3.207c.025.017.051.033.074.05l.061.038a7.62 7.62 0 0 0 2.852 1.031c.385.066.771.113 1.148.14l.134.011a14.138 14.138 0 0 0 1.653 0l.133-.011a10.2 10.2 0 0 0 2.7-.541 6.114 6.114 0 0 0 1.3-.631l.062-.038a.868.868 0 0 0 .074-.05l.3-.208v.927a.946.946 0 0 1-.056.284c0 .005-.006.01-.007.015l-.033.074a3.083 3.083 0 0 1-.441.554c-.064.055-.128.11-.2.159a5.27 5.27 0 0 1-1.227.625 7.543 7.543 0 0 1-.771.244l-.183.045c-.112.026-.223.052-.342.075-.177.033-.357.065-.542.09l-.209.025c-.159.019-.321.035-.485.047l-.2.014c-.228.013-.458.022-.693.022s-.464-.009-.692-.022l-.2-.014c-.165-.012-.327-.029-.487-.048l-.209-.024c-.167-.023-.329-.052-.49-.082H-1.8l-.047-.01s-.3-.044-.52-.1a8.959 8.959 0 0 1-1.048-.374s-.222-.083-.288-.123-.107-.064-.161-.092c-.108-.059-.211-.118-.306-.18l-.083-.057a3.071 3.071 0 0 1-.369-.3 1.262 1.262 0 0 1-.441-.874zm2.187 8.573l-.274-.062-.047-.011a7.67 7.67 0 0 1-1.124-.371l-.115-.051c-.1-.047-.2-.1-.3-.148a3.757 3.757 0 0 1-.345-.2l-.082-.057a3.014 3.014 0 0 1-.371-.3 1.24 1.24 0 0 1-.44-.874c0-.44.354-.878.971-1.263.024.019.044.042.068.061a4.661 4.661 0 0 0 .5.335l.074.042.008.005v.781a1.959 1.959 0 0 0 .458 1.221 3.216 3.216 0 0 0 .549.541 4.745 4.745 0 0 0 .445.3c.074.044.058.028.1.074zm6.592-.04v.088h-.024c-.35.056-.716.095-1.088.117-.227.012-.455.024-.692.024a10.581 10.581 0 0 1-3.011-.415l-.048-.016a4.952 4.952 0 0 1-1.8-.918 1.32 1.32 0 0 1-.536-.956l.006-.362.118.043.047.018c.008 0 .016 0 .024.007l.089.032h.006c.2.066.4.129.607.183l.163.039c.236.056.477.106.726.148.031.005.06.012.092.016.063.01.13.013.193.022.111.035.219.079.332.108a11.013 11.013 0 0 0 2.034.335l.134.01a13.723 13.723 0 0 0 1.653 0l.134-.01c.275-.02.542-.052.8-.087.082-.012.158-.031.239-.044a6.561 6.561 0 0 0-.201 1.619zm2.009-4.99a.929.929 0 0 1-.068.325 6.566 6.566 0 0 0-.671.79 4.57 4.57 0 0 1-.895.5 7.094 7.094 0 0 1-.752.277 9.415 9.415 0 0 1-1.41.3 11.361 11.361 0 0 1-4.107-.175c-.171-.04-.342-.081-.5-.129-.042-.013-.082-.027-.123-.042l-.074-.026a5.409 5.409 0 0 1-1.372-.651 2.884 2.884 0 0 1-.4-.328 1.22 1.22 0 0 1-.408-.843v-1.026c.044.038.078.086.124.122a4.869 4.869 0 0 0 .742.472l.024.012c.142.075.3.146.468.213s.516.194.675.244a9.072 9.072 0 0 0 1 .252 12.889 12.889 0 0 0 3.678.158l.165-.021c.174-.02.316-.037.453-.057a9.662 9.662 0 0 0 1.664-.405c.167-.057.328-.12.483-.186a5.787 5.787 0 0 0 .837-.436c.095-.06.183-.123.269-.188a2.708 2.708 0 0 0 .208-.184z" class="cls-2" transform="translate(6.843 -2633.502)"/>
                <path id="패스_1886" d="M-.307 2649.913l-.035-.013z" class="cls-2" transform="translate(3.609 -2641.656)"/>
            </g>
            <path id="패스_1887" d="M13.861 2662.072H-1.977v8.937h18.155v-8.937zm1.575 3.9v4.3H-1.235v-7.452h16.67z" class="cls-1" transform="translate(4.423 -2647.712)"/>
        </g>
        <path id="사각형_2089" fill="none" d="M0 0H32V32H0z" transform="translate(204 434)"/>
    </g>
</svg>
