<svg xmlns="http://www.w3.org/2000/svg" width="32" height="32" viewBox="0 0 32 32">
    <g>
        <path fill="#595959" d="M32.626 28.7a.4.4 0 1 1 .4.4.4.4 0 0 1-.4-.4zm19.2-10.572v13.6a1.6 1.6 0 0 1-1.6 1.6h-4.118a2.8 2.8 0 0 1-5.364 0h-6.518a1.6 1.6 0 0 1-1.6-1.6V30.3a.4.4 0 1 1 .8 0v1.428a.8.8 0 0 0 .8.8h6.4a2.8 2.8 0 0 1 5.6 0h4a.8.8 0 0 0 .8-.8v-12h-17.6V27.1a.4.4 0 1 1-.8 0v-8.974a1.6 1.6 0 0 1 1.6-1.6h.8a.4.4 0 0 1 .8 0h3.6a.4.4 0 0 1 .8 0h4a.4.4 0 0 1 .8 0h3.6a.4.4 0 0 1 .8 0h.8a1.6 1.6 0 0 1 1.599 1.6zm-18.4.8h17.6v-.8a.8.8 0 0 0-.8-.8h-.8v.4a.4.4 0 0 1-.8 0v-.4h-3.6v.4a.4.4 0 0 1-.8 0v-.4h-4v.4a.4.4 0 0 1-.8 0v-.4h-3.6v.4a.4.4 0 0 1-.8 0v-.4h-.8a.8.8 0 0 0-.8.8zm11.961 14a2 2 0 0 0 .04-.4 2.005 2.005 0 0 0-.079-.554l-.555.554-.4.4-.4.4-.183.183a.4.4 0 0 1-.566 0l-.183-.183-.4-.4-.218-.217a.4.4 0 0 1 .566-.566l.383.382.135.135.135-.135 1.291-1.289a2 2 0 0 0-3.526 1.289 2 2 0 0 0 .041.4 2.062 2.062 0 0 0 .128.4 2 2 0 0 0 3.665 0 2.063 2.063 0 0 0 .125-.401zm1.64-11.2a.4.4 0 1 0-.4-.4.4.4 0 0 0 .399.397zm2.4 0a.4.4 0 1 0-.4-.4.4.4 0 0 0 .399.397zm0 2.4a.4.4 0 1 0-.4-.4.4.4 0 0 0 .399.398zm-2.4 0a.4.4 0 1 0-.4-.4.4.4 0 0 0 .399.398zm2.4 2.4a.4.4 0 1 0-.4-.4.4.4 0 0 0 .399.397zm-2.4 0a.4.4 0 1 0-.4-.4.4.4 0 0 0 .399.397zm2.4 2.4a.4.4 0 1 0-.4-.4.4.4 0 0 0 .399.398zm-2.4 0a.4.4 0 1 0-.4-.4.4.4 0 0 0 .399.398zm-2.4-7.2a.4.4 0 1 0-.4-.4.4.4 0 0 0 .399.397zm-2.4 2.4a.4.4 0 1 0-.4-.4.4.4 0 0 0 .399.398zm2.4 0a.4.4 0 1 0-.4-.4.4.4 0 0 0 .399.398zm-2.4 2.4a.4.4 0 1 0-.4-.4.4.4 0 0 0 .399.397zm2.4 0a.4.4 0 1 0-.4-.4.4.4 0 0 0 .399.397zm0 2.4a.4.4 0 1 0-.4-.4.4.4 0 0 0 .399.398zm-2.4 0a.4.4 0 1 0-.4-.4.4.4 0 0 0 .399.398zm-2.392.023a.4.4 0 1 0-.4-.4.4.4 0 0 0 .399.398zm-2.408-4.823a.4.4 0 1 0-.4-.4.4.4 0 0 0 .399.398zm-2.4 0a.4.4 0 1 0-.4-.4.4.4 0 0 0 .398.398zm4.8 0a.4.4 0 1 0-.4-.4.4.4 0 0 0 .398.398zm-2.4 2.4a.4.4 0 1 0-.4-.4.4.4 0 0 0 .399.397zm2.4 0a.4.4 0 1 0-.4-.4.4.4 0 0 0 .398.397zm-4.8 0a.4.4 0 1 0-.4-.4.4.4 0 0 0 .398.397zm2.4 2.4a.4.4 0 1 0-.4-.4.4.4 0 0 0 .399.398zm-2.4 0a.4.4 0 1 0-.4-.4.4.4 0 0 0 .398.398zm0 2.4a.4.4 0 1 0-.4-.4.4.4 0 0 0 .398.398zm4.4-.4a.4.4 0 1 0 .4-.4.4.4 0 0 0-.401.397zm-2 .4a.4.4 0 1 0-.4-.4.4.4 0 0 0 .399.398zM36.816 20.4h1.2a.3.3 0 0 1 .3.3v1.2a.3.3 0 0 1-.3.3h-1.2a.3.3 0 0 1-.3-.3v-1.2a.3.3 0 0 1 .3-.3zm.9.6h-.6v.6h.6V21zm1.5-.6h1.2a.3.3 0 0 1 .3.3v1.2a.3.3 0 0 1-.3.3h-1.2a.3.3 0 0 1-.3-.3v-1.2a.3.3 0 0 1 .307-.3zm.9.6h-.6v.6h.6V21zm1.5-.6h1.2a.3.3 0 0 1 .3.3v1.2a.3.3 0 0 1-.3.3h-1.2a.3.3 0 0 1-.3-.3v-1.2a.3.3 0 0 1 .315-.3zm.9.6h-.6v.6h.6V21z" transform="translate(-32 -974) translate(6.149 963.873)"/>
        <path fill="none" d="M0 0H32V32H0z" transform="translate(-32 -974) translate(32 974)"/>
    </g>
</svg>
