<svg xmlns="http://www.w3.org/2000/svg" width="73.337" height="10.566" viewBox="0 0 73.337 10.566">
    <defs>
        <style>
            .cls-1{fill:#fff}
        </style>
    </defs>
    <g id="그룹_848" transform="translate(-205.083 -807.016)">
        <g id="그룹_849" transform="translate(5)">
            <g id="그룹_847" transform="translate(237.715 807.394)">
                <path id="패스_2162" d="M303.874 811.349a6.178 6.178 0 0 0 .106 1.194 3.276 3.276 0 0 0 .361.988 3.6 3.6 0 0 0 .669.845 5.808 5.808 0 0 0 1.041.764l-.647.871a5.579 5.579 0 0 1-.7-.4 6.068 6.068 0 0 1-.653-.51 4.329 4.329 0 0 1-.552-.595 3.754 3.754 0 0 1-.4-.648 4.111 4.111 0 0 1-.424.669 5.875 5.875 0 0 1-.564.627 6.26 6.26 0 0 1-.647.546 5.121 5.121 0 0 1-.669.42l-.648-.871a5.611 5.611 0 0 0 1.02-.78 3.738 3.738 0 0 0 .669-.882 3.825 3.825 0 0 0 .372-1.025 5.847 5.847 0 0 0 .117-1.21v-1.031h-1.806v-.945h5.161v.945h-1.806zm2.814-2.2h1.551v9.027h-1.551v-5.5h-1.848v-.946h1.848z" class="cls-1" transform="translate(-300.146 -808.725)"/>
                <path id="패스_2163" d="M333.1 812.757v.944h-3.537v.787h2.369v3.037h-1.55v-2.092h-4.742v-.945h2.368v-.788h-3.547v-.944zm-5.087-3.983v-.754h1.551v.754h2.5v.945H329.6a1.444 1.444 0 0 0 .313.623 2.44 2.44 0 0 0 .6.506 3.424 3.424 0 0 0 .829.359 4.452 4.452 0 0 0 1.009.168l-.329.882a5.574 5.574 0 0 1-1.938-.372 2.968 2.968 0 0 1-1.3-.945 3.13 3.13 0 0 1-1.311.945 5.488 5.488 0 0 1-1.927.372l-.329-.882a4.392 4.392 0 0 0 1-.168 3.443 3.443 0 0 0 .823-.359 2.428 2.428 0 0 0 .6-.506 1.544 1.544 0 0 0 .324-.623h-2.453v-.945z" class="cls-1" transform="translate(-315.317 -808.02)"/>
                <path id="패스_2164" d="M357.1 813.5v.945h-8.634v-.945zm-6.5 4.344a.961.961 0 0 1-.728-.234 1.01 1.01 0 0 1-.218-.711v-1.829h1.546v1.83h4.886v.945zm-.573-7.073a1.989 1.989 0 0 1 .186-.855 1.911 1.911 0 0 1 .541-.685 2.688 2.688 0 0 1 .866-.451 4.2 4.2 0 0 1 2.331 0 2.679 2.679 0 0 1 .871.451 1.911 1.911 0 0 1 .541.685 2.072 2.072 0 0 1 0 1.715 1.934 1.934 0 0 1-.541.68 2.685 2.685 0 0 1-.871.451 4.214 4.214 0 0 1-2.331 0 2.693 2.693 0 0 1-.866-.451 1.934 1.934 0 0 1-.541-.68 1.977 1.977 0 0 1-.189-.863zm1.551 0a1.218 1.218 0 0 0 .318.877 1.358 1.358 0 0 0 1.785 0 1.367 1.367 0 0 0 0-1.753 1.358 1.358 0 0 0-1.785 0 1.218 1.218 0 0 0-.321.873z" class="cls-1" transform="translate(-330.292 -808.389)"/>
                <path id="패스_2165" d="M374.011 808.88v-.86h1.551v.86h1.571v.945h-4.694v-.945zm.776 4.9a2.292 2.292 0 0 1-1.53-.484 1.787 1.787 0 0 1 0-2.623 2.662 2.662 0 0 1 3.059 0 1.785 1.785 0 0 1 0 2.623 2.291 2.291 0 0 1-1.53.481zm0-1.041a.808.808 0 0 0 .563-.191.851.851 0 0 0 0-1.125.923.923 0 0 0-1.126 0 .853.853 0 0 0 0 1.125.809.809 0 0 0 .562.187zm.5 3.133a1.638 1.638 0 0 1 .2-.8 1.79 1.79 0 0 1 .558-.6 2.714 2.714 0 0 1 .87-.382 4.918 4.918 0 0 1 2.273 0 2.713 2.713 0 0 1 .871.382 1.785 1.785 0 0 1 .558.6 1.737 1.737 0 0 1 0 1.6 1.778 1.778 0 0 1-.558.6 2.715 2.715 0 0 1-.871.383 4.947 4.947 0 0 1-2.273 0 2.716 2.716 0 0 1-.87-.383 1.783 1.783 0 0 1-.558-.6 1.639 1.639 0 0 1-.202-.804zm1.551 0a.88.88 0 0 0 .319.712 1.633 1.633 0 0 0 1.784 0 .954.954 0 0 0 0-1.423 1.631 1.631 0 0 0-1.784 0 .877.877 0 0 0-.321.707zm2.05-4.322v2.061h-1.444v-5.162h1.444v2.151h.627v-2.156h1.444v5.268h-1.444v-2.167z" class="cls-1" transform="translate(-345.251 -808.02)"/>
            </g>
            <path id="패스_2166" d="M253.57 812.363v.748h-1.42v1.167h-1.45v-1.167h-1.566v-.748zm-.067-1.905a2.129 2.129 0 1 1-2.082-1.677 1.92 1.92 0 0 1 2.082 1.677m3.951 7.479h-5.694a.933.933 0 0 1-1.024-.957v-1.089h5.073v-.458h-5.171v-.806h6.642v2.026h-5.072v.478h5.246zm-6.771-7.479a.869.869 0 0 0 .737.912.857.857 0 0 0 .729-.912.873.873 0 0 0-.729-.927.885.885 0 0 0-.737.927m1.991 3.766v-.684h1.316v-4.62h1.388v5.3zm4.606 0h-1.38v-5.3h1.382z" class="cls-1" transform="translate(-30.605 -1.101)"/>
            <path id="패스_2167" d="M275.4 809.381h4.41v.77a4.113 4.113 0 0 1-4.167 3.985l-.822-.552a3.711 3.711 0 0 0 2.952-1.548H275.4v-.826h2.735a3.471 3.471 0 0 0 .108-.853v-.15H275.4zm7.2 5.279v3.54h-5.086a.947.947 0 0 1-1.025-.983v-2.558zm-1.47.839h-3.17v1.862h3.17zm1.47-6.317v4.836h-1.47v-1.81h-1.516v-.825h1.516v-2.2z" class="cls-1" transform="translate(-46.631 -1.351)"/>
            <path id="패스_2168" d="M217.757 809.128a3.169 3.169 0 0 1 2.976 2.088 3.019 3.019 0 0 1 .143.532 2.92 2.92 0 0 1 0 1.1 3.01 3.01 0 0 1-.143.534 3.237 3.237 0 0 1-.549.953 3.167 3.167 0 0 1-5.405-.953 3.1 3.1 0 0 1-.143-1.634l-2.082-.367a5.333 5.333 0 0 0 .236 2.725 5.282 5.282 0 0 0 9.011 1.586 5.122 5.122 0 0 0 .529-.753 5.281 5.281 0 0 0-4.573-7.925z" class="cls-1" transform="translate(-7.731)"/>
            <path id="패스_2169" d="M205.367 809.128a3.169 3.169 0 0 0-2.977 4.254 3.078 3.078 0 0 0 .233.5 3.121 3.121 0 0 0 .317.453 3.171 3.171 0 0 0 5.548-1.487 3.005 3.005 0 0 0 0-1.1l2.081-.367a5.245 5.245 0 0 1 0 1.835 5.285 5.285 0 0 1-9.776 1.724 5.281 5.281 0 0 1 4.575-7.925z" class="cls-1"/>
        </g>
    </g>
</svg>
