<svg xmlns="http://www.w3.org/2000/svg" width="32" height="32" viewBox="0 0 32 32">
    <g>
        <path fill="#595959" d="M96.979 47.647a.485.485 0 0 1-.012.1.455.455 0 0 1 .024.1 1.79 1.79 0 0 0 1.823 1.505.412.412 0 0 1 .416.416v4.642a.412.412 0 0 1-.416.416H79.672a.414.414 0 0 1-.416-.416v-4.637a.414.414 0 0 1 .416-.416 1.9 1.9 0 0 0 1.273-.478.428.428 0 0 1 .558 0l.029.027a.421.421 0 0 1-.029.592 2.75 2.75 0 0 1-1.415.662v1.752h1.665a.416.416 0 1 1 0 .832h-1.665v1.248H98.4v-1.247h-1.666a.416.416 0 1 1 0-.832H98.4v-1.751a2.611 2.611 0 0 1-2.231-2.2.427.427 0 0 1 .008-.158.387.387 0 0 1-.029-.154 2.576 2.576 0 0 1 2.252-2.52v-3.62H80.088v3.62a2.735 2.735 0 0 1 1.553.8.415.415 0 0 1-.013.587.31.31 0 0 1-.032.025.423.423 0 0 1-.555-.037 1.908 1.908 0 0 0-1.369-.571.412.412 0 0 1-.416-.416v-4.425a.414.414 0 0 1 .416-.416h19.142a.412.412 0 0 1 .416.416v4.424a.416.416 0 0 1-.12.3.436.436 0 0 1-.3.12 1.783 1.783 0 0 0-1.836 1.707zm-15.117.489c.015 0 .03.006.045.007h.017a.418.418 0 0 0 .416-.4.434.434 0 0 0-.113-.3.423.423 0 0 0-.287-.133h-.046a.414.414 0 0 0-.032.823zm13.738 1.28v3.329a.416.416 0 0 1-.416.416H83.53a.416.416 0 0 1-.416-.416v-3.329A.416.416 0 0 1 83.53 49h11.652a.416.416 0 0 1 .418.416zm-.832.416H83.946v2.5h10.82zm-9.473 1.686h8.323a.416.416 0 0 0 0-.832h-8.325a.416.416 0 0 0 0 .832zm1.117-8.76v2.784a.417.417 0 0 1-.416.417h-2.787a.417.417 0 0 1-.416-.417v-2.784a.416.416 0 0 1 .416-.416h2.786a.416.416 0 0 1 .415.416zm-.832.416h-1.954v1.953h1.953zm2.273 2.786a.417.417 0 0 1-.416-.417v-2.785a.416.416 0 0 1 .416-.416h2.785a.416.416 0 0 1 .416.416v2.784a.417.417 0 0 1-.416.417zm.416-.833h1.951v-1.953h-1.953zm7.427.416a.417.417 0 0 1-.417.417h-2.787a.417.417 0 0 1-.416-.417v-2.785a.416.416 0 0 1 .416-.416h2.785a.416.416 0 0 1 .417.416zm-.833-2.369h-1.955v1.953h1.953zM84.25 47.336a.416.416 0 0 0 .416.416h9.155a.416.416 0 1 0 0-.832h-9.155a.416.416 0 0 0-.416.416z" transform="translate(-32 -1019) translate(-41.256 987.322)"/>
        <path fill="none" d="M0 0H32V32H0z" transform="translate(-32 -1019) translate(32 1019)"/>
    </g>
</svg>
