<svg xmlns="http://www.w3.org/2000/svg" width="32" height="32" viewBox="0 0 32 32">
    <defs>
        <style>
            .cls-1{fill:#595959}
        </style>
    </defs>
    <g id="그룹_2540" transform="translate(-32 -882)">
        <g id="그룹_2626">
            <g id="그룹_2143" transform="translate(-119.885 866.783)">
                <g id="그룹_2110" transform="translate(172.518 37.38)">
                    <g id="그룹_2106" transform="translate(1.31 2.184)">
                        <path id="패스_3154" d="M177.011 43.99a.436.436 0 0 1-.437-.437v-.437a.437.437 0 1 1 .874 0v.437a.436.436 0 0 1-.437.437z" class="cls-1" transform="translate(-176.574 -42.68)"/>
                    </g>
                    <g id="그룹_2107" transform="translate(1.31)">
                        <path id="패스_3155" d="M177.011 41.435a.437.437 0 0 1-.437-.437v-.437a.437.437 0 1 1 .874 0V41a.436.436 0 0 1-.437.435z" class="cls-1" transform="translate(-176.574 -40.125)"/>
                    </g>
                    <g id="그룹_2108" transform="translate(2.184 1.31)">
                        <path id="패스_3156" d="M178.47 42.532h-.438a.437.437 0 1 1 0-.874h.438a.437.437 0 0 1 0 .874z" class="cls-1" transform="translate(-177.596 -41.658)"/>
                    </g>
                    <g id="그룹_2109" transform="translate(0 1.31)">
                        <path id="패스_3157" d="M175.915 42.532h-.437a.437.437 0 1 1 0-.874h.437a.437.437 0 1 1 0 .874z" class="cls-1" transform="translate(-175.041 -41.658)"/>
                    </g>
                </g>
                <g id="그룹_2115" transform="translate(157.666 33.885)">
                    <g id="그룹_2111" transform="translate(1.31 2.184)">
                        <path id="패스_3158" d="M159.636 39.9a.437.437 0 0 1-.437-.437v-.437a.437.437 0 0 1 .874 0v.437a.437.437 0 0 1-.437.437z" class="cls-1" transform="translate(-159.199 -38.592)"/>
                    </g>
                    <g id="그룹_2112" transform="translate(1.31)">
                        <path id="패스_3159" d="M159.636 37.347a.437.437 0 0 1-.437-.437v-.437a.437.437 0 1 1 .874 0v.437a.437.437 0 0 1-.437.437z" class="cls-1" transform="translate(-159.199 -36.037)"/>
                    </g>
                    <g id="그룹_2113" transform="translate(2.184 1.31)">
                        <path id="패스_3160" d="M161.095 38.444h-.437a.437.437 0 0 1 0-.874h.437a.437.437 0 1 1 0 .874z" class="cls-1" transform="translate(-160.221 -37.57)"/>
                    </g>
                    <g id="그룹_2114" transform="translate(0 1.31)">
                        <path id="패스_3161" d="M158.54 38.444h-.44a.437.437 0 1 1 0-.874h.437a.437.437 0 1 1 0 .874z" class="cls-1" transform="translate(-157.666 -37.57)"/>
                    </g>
                </g>
                <g id="그룹_2120" transform="translate(161.107 38.2)">
                    <g id="그룹_2116" transform="translate(0 1.544)">
                        <path id="패스_3162" d="M162.129 44.074a.436.436 0 0 1-.309-.745l.309-.309a.437.437 0 1 1 .618.618l-.309.309a.439.439 0 0 1-.309.127z" class="cls-1" transform="translate(-161.692 -42.892)"/>
                    </g>
                    <g id="그룹_2117" transform="translate(1.545)">
                        <path id="패스_3163" d="M163.936 42.268a.437.437 0 0 1-.309-.746l.309-.309a.437.437 0 0 1 .618.618l-.309.309a.433.433 0 0 1-.309.128z" class="cls-1" transform="translate(-163.499 -41.085)"/>
                    </g>
                    <g id="그룹_2118" transform="translate(1.545 1.544)">
                        <path id="패스_3164" d="M164.244 44.074a.439.439 0 0 1-.309-.127l-.309-.309a.437.437 0 1 1 .617-.618l.309.309a.436.436 0 0 1-.309.745z" class="cls-1" transform="translate(-163.499 -42.892)"/>
                    </g>
                    <g id="그룹_2119">
                        <path id="패스_3165" d="M162.438 42.268a.436.436 0 0 1-.309-.128l-.309-.309a.437.437 0 0 1 .618-.618l.309.309a.437.437 0 0 1-.309.746z" class="cls-1" transform="translate(-161.692 -41.085)"/>
                    </g>
                </g>
                <g id="그룹_2125" transform="translate(175.139 21.217)">
                    <g id="그룹_2121" transform="translate(1.31 2.184)">
                        <path id="패스_3166" d="M180.077 25.082a.437.437 0 0 1-.437-.437v-.437a.437.437 0 0 1 .874 0v.437a.437.437 0 0 1-.437.437z" class="cls-1" transform="translate(-179.64 -23.772)"/>
                    </g>
                    <g id="그룹_2122" transform="translate(1.31)">
                        <path id="패스_3167" d="M180.077 22.527a.437.437 0 0 1-.437-.437v-.437a.437.437 0 0 1 .874 0v.437a.437.437 0 0 1-.437.437z" class="cls-1" transform="translate(-179.64 -21.217)"/>
                    </g>
                    <g id="그룹_2123" transform="translate(2.185 1.31)">
                        <path id="패스_3168" d="M181.537 23.624h-.437a.437.437 0 1 1 0-.874h.437a.437.437 0 0 1 0 .874z" class="cls-1" transform="translate(-180.663 -22.75)"/>
                    </g>
                    <g id="그룹_2124" transform="translate(0 1.31)">
                        <path id="패스_3169" d="M178.981 23.624h-.436a.437.437 0 1 1 0-.874h.436a.437.437 0 0 1 0 .874z" class="cls-1" transform="translate(-178.107 -22.75)"/>
                    </g>
                </g>
                <g id="그룹_2130" transform="translate(157.666 21.217)">
                    <g id="그룹_2126" transform="translate(0 1.544)">
                        <path id="패스_3170" d="M158.1 24.206a.437.437 0 0 1-.309-.745l.309-.309a.437.437 0 1 1 .618.618l-.309.309a.433.433 0 0 1-.309.127z" class="cls-1" transform="translate(-157.666 -23.024)"/>
                    </g>
                    <g id="그룹_2127" transform="translate(1.544)">
                        <path id="패스_3171" d="M159.91 22.4a.436.436 0 0 1-.309-.745l.309-.309a.436.436 0 0 1 .617.617l-.309.309a.439.439 0 0 1-.308.128z" class="cls-1" transform="translate(-159.473 -21.217)"/>
                    </g>
                    <g id="그룹_2128" transform="translate(1.544 1.544)">
                        <path id="패스_3172" d="M160.218 24.206a.434.434 0 0 1-.309-.128l-.309-.309a.437.437 0 1 1 .618-.618l.309.309a.437.437 0 0 1-.309.745z" class="cls-1" transform="translate(-159.473 -23.024)"/>
                    </g>
                    <g id="그룹_2129">
                        <path id="패스_3173" d="M158.411 22.4a.438.438 0 0 1-.309-.127l-.309-.309a.436.436 0 0 1 .617-.617l.309.309a.436.436 0 0 1-.309.745z" class="cls-1" transform="translate(-157.666 -21.217)"/>
                    </g>
                </g>
                <g id="그룹_2135" transform="translate(175.907 34.322)">
                    <g id="그룹_2131" transform="translate(0 1.545)">
                        <path id="패스_3174" d="M179.443 39.537a.437.437 0 0 1-.309-.745l.309-.309a.436.436 0 0 1 .617.617l-.309.309a.436.436 0 0 1-.308.128z" class="cls-1" transform="translate(-179.006 -38.355)"/>
                    </g>
                    <g id="그룹_2132" transform="translate(1.544)">
                        <path id="패스_3175" d="M181.249 37.73a.437.437 0 0 1-.309-.745l.309-.309a.437.437 0 1 1 .618.617l-.309.309a.436.436 0 0 1-.309.128z" class="cls-1" transform="translate(-180.812 -36.548)"/>
                    </g>
                    <g id="그룹_2133" transform="translate(1.544 1.545)">
                        <path id="패스_3176" d="M181.558 39.537a.436.436 0 0 1-.309-.128l-.309-.309a.437.437 0 1 1 .618-.617l.309.309a.437.437 0 0 1-.309.745z" class="cls-1" transform="translate(-180.812 -38.355)"/>
                    </g>
                    <g id="그룹_2134">
                        <path id="패스_3177" d="M179.751 37.73a.433.433 0 0 1-.309-.128l-.309-.309a.437.437 0 1 1 .618-.617l.309.309a.437.437 0 0 1-.309.745z" class="cls-1" transform="translate(-179.006 -36.548)"/>
                    </g>
                </g>
                <g id="그룹_2142" transform="translate(159.85 21.217)">
                    <g id="그룹_2136" transform="translate(6.553 14.852)">
                        <path id="패스_3178" d="M168.324 44.707a.437.437 0 0 1-.291-.763c1.2-1.065 1.581-2.647 1.172-4.835a.437.437 0 1 1 .858-.161c.465 2.48-.023 4.381-1.45 5.649a.435.435 0 0 1-.289.11z" class="cls-1" transform="translate(-167.887 -38.592)"/>
                    </g>
                    <g id="그룹_2137">
                        <path id="패스_3179" d="M165.861 37.817a2.249 2.249 0 0 1-1.809-.886 2.117 2.117 0 0 1-.463-1.35 3.665 3.665 0 0 1 .389-1.521 3.676 3.676 0 0 1-1.525.385h-.009a2.107 2.107 0 0 1-1.336-.459 2.264 2.264 0 0 1-.887-1.839 4.883 4.883 0 0 1 .97-2.63 4.883 4.883 0 0 1-.97-2.629 2.259 2.259 0 0 1 .887-1.839 2.111 2.111 0 0 1 1.336-.463h.009a3.652 3.652 0 0 1 1.521.389 3.759 3.759 0 0 1-.385-1.521 2.116 2.116 0 0 1 .463-1.35 2.249 2.249 0 0 1 1.809-.886h.026a4.884 4.884 0 0 1 2.635.969 4.9 4.9 0 0 1 2.629-.969h.026a2.249 2.249 0 0 1 1.812.886 2.1 2.1 0 0 1 .459 1.35 3.661 3.661 0 0 1-.385 1.521 3.646 3.646 0 0 1 1.521-.385h.013a2.11 2.11 0 0 1 1.337.459 2.263 2.263 0 0 1 .886 1.839 4.916 4.916 0 0 1-.969 2.629 4.916 4.916 0 0 1 .969 2.63 2.263 2.263 0 0 1-.886 1.839 2.127 2.127 0 0 1-1.337.459h-.013a3.646 3.646 0 0 1-1.521-.385 3.658 3.658 0 0 1 .385 1.521v.069a.439.439 0 0 1-.437.424H173a.439.439 0 0 1-.3-.135.429.429 0 0 1-.122-.315v-.044a4.92 4.92 0 0 0-1.323-2.717.442.442 0 0 1 .03-.586.456.456 0 0 1 .586-.031 4.987 4.987 0 0 0 2.7 1.324h.022a1.228 1.228 0 0 0 .808-.271 1.392 1.392 0 0 0 .556-1.153 4.641 4.641 0 0 0-.979-2.372.432.432 0 0 1 0-.515 4.625 4.625 0 0 0 .979-2.372 1.4 1.4 0 0 0-.556-1.157 1.259 1.259 0 0 0-.808-.271h-.022a5 5 0 0 0-2.7 1.328.456.456 0 0 1-.586-.031.442.442 0 0 1-.03-.586 4.923 4.923 0 0 0 1.323-2.717 1.213 1.213 0 0 0-.271-.808 1.387 1.387 0 0 0-1.153-.555h-.026a4.627 4.627 0 0 0-2.342.978.436.436 0 0 1-.52 0 4.73 4.73 0 0 0-2.35-.978h-.027a1.376 1.376 0 0 0-1.149.555 1.243 1.243 0 0 0-.275.808 4.932 4.932 0 0 0 1.328 2.717.442.442 0 0 1-.031.586.451.451 0 0 1-.586.031 5 5 0 0 0-2.7-1.328h-.027a1.235 1.235 0 0 0-.8.275 1.388 1.388 0 0 0-.555 1.153 4.587 4.587 0 0 0 .979 2.368.439.439 0 0 1 0 .52 4.649 4.649 0 0 0-.979 2.372 1.383 1.383 0 0 0 .555 1.153 1.209 1.209 0 0 0 .8.271h.027a5 5 0 0 0 2.7-1.324.451.451 0 0 1 .586.031.442.442 0 0 1 .031.586 4.93 4.93 0 0 0-1.328 2.717 1.26 1.26 0 0 0 .275.808 1.381 1.381 0 0 0 1.153.555h.022a4.723 4.723 0 0 0 2.35-.979.432.432 0 0 1 .515 0 5.58 5.58 0 0 0 1.813.9.438.438 0 0 1-.2.852 5.9 5.9 0 0 1-1.869-.874 4.93 4.93 0 0 1-2.63.969zm6.316-.288a.431.431 0 0 1-.367-.2.455.455 0 0 1-.062-.328.438.438 0 0 1 .192-.274.447.447 0 0 1 .6.131.456.456 0 0 1 .061.327.442.442 0 0 1-.192.275.453.453 0 0 1-.232.069z" class="cls-1" transform="translate(-160.221 -21.217)"/>
                    </g>
                    <g id="그룹_2138" transform="translate(3.058 7.863)">
                        <path id="패스_3180" d="M166.857 31.29h-2.622a.437.437 0 1 1 0-.874h2.622a.437.437 0 0 1 0 .874z" class="cls-1" transform="translate(-163.798 -30.416)"/>
                    </g>
                    <g id="그룹_2139" transform="translate(10.048 7.863)">
                        <path id="패스_3181" d="M175.033 31.29h-2.621a.437.437 0 0 1 0-.874h2.621a.437.437 0 0 1 0 .874z" class="cls-1" transform="translate(-171.975 -30.416)"/>
                    </g>
                    <g id="그룹_2140" transform="translate(7.864 3.058)">
                        <path id="패스_3182" d="M169.857 28.288a.436.436 0 0 1-.437-.437v-2.62a.437.437 0 0 1 .874 0v2.621a.437.437 0 0 1-.437.436z" class="cls-1" transform="translate(-169.42 -24.794)"/>
                    </g>
                    <g id="그룹_2141" transform="translate(7.864 10.047)">
                        <path id="패스_3183" d="M169.857 36.465a.437.437 0 0 1-.437-.437v-2.62a.437.437 0 0 1 .874 0v2.621a.437.437 0 0 1-.437.436z" class="cls-1" transform="translate(-169.42 -32.971)"/>
                    </g>
                </g>
            </g>
        </g>
        <path id="사각형_2075" fill="none" d="M0 0H32V32H0z" transform="translate(32 882)"/>
    </g>
</svg>
