<svg xmlns="http://www.w3.org/2000/svg" width="32" height="32" viewBox="0 0 32 32">
    <g>
        <path fill="#595959" d="M78.13 30.586a.344.344 0 0 1-.073-.253.339.339 0 0 1 .129-.234.358.358 0 0 1 .487.052l.006.009a.34.34 0 0 1 .071.25.347.347 0 0 1-.129.233.345.345 0 0 1-.482-.047zm6.231 14.334c-.086.01-.171.019-.257.027h-.016c-.1.009-.2.015-.3.019-.115.006-.231.009-.347.009h-.023c-.128 0-.255 0-.382-.01s-.224-.014-.336-.023a8.376 8.376 0 0 1-7.541-7.073 7.794 7.794 0 0 1 .109-3.084 8.357 8.357 0 0 1 1.869-3.685.358.358 0 0 1 .491-.031l.006.008a.346.346 0 0 1 .025.484 7.662 7.662 0 0 0-1.443 2.445 2.944 2.944 0 0 1 .257 5.827 7.737 7.737 0 0 0 3.955 3.832 3 3 0 0 1 2.912-2.513 3.028 3.028 0 0 1 2.924 2.573 7.73 7.73 0 0 0 4.087-3.856 2.945 2.945 0 0 1 .28-5.831 7.724 7.724 0 0 0-4.368-4.53 2.945 2.945 0 0 1-5.836.053 7.3 7.3 0 0 0-.7.339.359.359 0 0 1-.47-.131.348.348 0 0 1 .135-.475 8.36 8.36 0 1 1 4.971 15.63zm6.451-10.2a2.252 2.252 0 0 0-.212 4.48 7.122 7.122 0 0 0 .218-4.484zm-7.151-5.762h-.087a6.967 6.967 0 0 0-2.476.393 2.255 2.255 0 0 0 4.493-.053 7.034 7.034 0 0 0-1.68-.324c-.082-.007-.166-.012-.249-.015zm.261 15.3a6.968 6.968 0 0 0 1.669-.324 2.334 2.334 0 0 0-2.252-2.087 2.308 2.308 0 0 0-2.239 2.041 7.06 7.06 0 0 0 2.482.388h.094l.247-.015zm-7.982-9.311a7.145 7.145 0 0 0 .285 4.221 2.252 2.252 0 0 0-.217-4.484l-.066.265zm9.685-.681a.347.347 0 0 0 .256-.117l.012-.012a.349.349 0 0 0-.048-.491.357.357 0 0 0-.487.049l-.012.016a.362.362 0 0 0-.069.241.353.353 0 0 0 .129.234.338.338 0 0 0 .221.082zm-.9-.88l.008-.018a.351.351 0 0 0-.237-.432 3.893 3.893 0 0 0-1.08-.153 3.826 3.826 0 1 0 3.39 2.041.357.357 0 0 0-.471-.142l-.015.01a.349.349 0 0 0-.132.46 3.08 3.08 0 0 1 .363 1.463 3.129 3.129 0 1 1-2.251-3.01.35.35 0 0 0 .431-.217zM82.671 38.5a.349.349 0 0 0 .463-.167l1.473-3.133a.347.347 0 0 0-.314-.5h-1.742a.348.348 0 0 0 0 .7h1.193L82.5 38.036a.349.349 0 0 0 .171.464z" transform="translate(-32 -928) translate(-35.05 907.744)"/>
        <path fill="none" d="M0 0H32V32H0z" transform="translate(-32 -928) translate(32 928)"/>
    </g>
</svg>
