<svg xmlns="http://www.w3.org/2000/svg" width="20.75" height="27.324" viewBox="0 0 20.75 27.324">
    <defs>
        <style>
            .cls-1{fill:#222}
        </style>
    </defs>
    <g id="그룹_2714" transform="translate(4290.2 -623.656)">
        <path id="패스_3548" d="M-4279.808 628.167h-.016a5.534 5.534 0 0 0-5.519 5.518 5.555 5.555 0 0 0 5.431 5.518h.087a5.536 5.536 0 0 0 5.517-5.52 5.5 5.5 0 0 0-1.617-3.9 5.508 5.508 0 0 0-3.883-1.616zm3.015 8.549a4.291 4.291 0 0 1-3.033 1.255 4.3 4.3 0 0 1-4.286-4.288 4.311 4.311 0 0 1 4.229-4.286h.067a4.291 4.291 0 0 1 3.024 1.259 4.279 4.279 0 0 1 1.255 3.03 4.282 4.282 0 0 1-1.255 3.031z" class="cls-1"/>
        <path id="패스_3549" d="M-4279.826 623.656a10.4 10.4 0 0 0-10.374 10.375c0 8.161 9.568 16.913 10.381 16.949.8-.036 10.369-8.788 10.369-16.949a10.4 10.4 0 0 0-10.376-10.375zm.09 25.928l-.078.06-.077-.062c-2.355-1.939-9.078-8.956-9.078-15.551a9.17 9.17 0 0 1 9.144-9.144 9.168 9.168 0 0 1 9.143 9.144c0 7.123-7.564 14.413-9.054 15.553z" class="cls-1"/>
    </g>
</svg>
