<svg xmlns="http://www.w3.org/2000/svg" width="30" height="30" viewBox="0 0 30 30">
    <defs>
        <style>
            .cls-2{fill:#fff}
        </style>
    </defs>
    <g id="내프로필">
        <path id="패스_1867" fill="#00cfe2" d="M15 0a15 15 0 0 1 9.169 26.872v-1.708a9.169 9.169 0 1 0-18.337 0v1.708A15 15 0 0 1 15 0zm4.663 9.252a4.621 4.621 0 1 0-1.354 3.277 4.621 4.621 0 0 0 1.353-3.277z"/>
        <g id="그룹_590" transform="translate(5.831 4.62)">
            <path id="패스_1868" d="M103.087 241.63v1.708a15 15 0 0 1-18.337 0v-1.708a9.169 9.169 0 0 1 18.337 0z" class="cls-2" transform="translate(-84.75 -221.086)"/>
            <path id="패스_1869" d="M158.858 68.5a4.645 4.645 0 1 1-3.278-1.354 4.645 4.645 0 0 1 3.278 1.354z" class="cls-2" transform="translate(-146.381 -67.149)"/>
        </g>
    </g>
</svg>
