<svg xmlns="http://www.w3.org/2000/svg" width="50" height="50" viewBox="0 0 50 50">
    <defs>
        <style>
            .cls-1{fill:#ff7a00}
        </style>
    </defs>
    <g id="그룹_3531" transform="translate(-230 -574)">
        <g id="그룹_2167" transform="translate(73 15.652)">
            <path id="패스_3226" d="M-2400.436-393.608a1.676 1.676 0 0 0-2.355-.263 1.676 1.676 0 0 0-.263 2.355l1.681 2.1h-10.654a1.675 1.675 0 0 0-1.676 1.675 1.676 1.676 0 0 0 1.676 1.676h10.654l-1.681 2.1a1.676 1.676 0 0 0 .263 2.355 1.676 1.676 0 0 0 2.355-.263l3.854-4.824a1.675 1.675 0 0 0 0-2.091z" class="cls-1" transform="translate(2601.099 970.406)"/>
            <g id="그룹_2166" transform="translate(163.223 566.348)">
                <g id="그룹_424" transform="translate(0 0)">
                    <path id="패스_1801" d="M260.612 2633.4l-1.433-7.347h-1.1l1.229 6.141-30.228.036 1.971-11.426h17.811v-1.087h-17.73v-9.25h26.117v2.775h1.088v-6.579a2.725 2.725 0 0 0-2.72-2.721h-22.853a2.722 2.722 0 0 0-2.719 2.721v13.55l-2.275 13.187a2.72 2.72 0 0 0 2.683 3.183h27.474a2.722 2.722 0 0 0 2.682-3.183zm-29.478-26.742a1.631 1.631 0 0 1 1.63-1.632h22.855a1.631 1.631 0 0 1 1.632 1.631v2.72h-26.117zm28.045 28.257a1.629 1.629 0 0 1-1.249.581h-27.474a1.632 1.632 0 0 1-1.61-1.91l.046-.267H259.5l.046.267a1.636 1.636 0 0 1-.367 1.33z" class="cls-1" transform="translate(-227.731 -2603.942)"/>
                    <path id="사각형_1668" d="M0 0H3.265V1.089H0z" class="cls-1" transform="translate(6.666 12.511)"/>
                    <path id="사각형_1669" d="M0 0H3.265V1.089H0z" class="cls-1" transform="translate(12.107 12.511)"/>
                    <path id="사각형_1670" d="M0 0H3.265V1.089H0z" class="cls-1" transform="translate(17.548 12.511)"/>
                    <path id="사각형_1671" d="M0 0H5.441V1.089H0z" class="cls-1" transform="translate(20.813 22.304)"/>
                    <path id="사각형_1672" d="M0 0H5.441V1.089H0z" class="cls-1" transform="translate(6.666 22.304)"/>
                    <path id="패스_1802" d="M248.29 2625.828h-.9l-.464 2.364h-.764l-.571-2.364h-.8l-.593 2.364h-.764l-.431-2.364h-.89l.5 2.364h-.748v.616h.883l.452 2.091h1.038l.511-2.091h.845l.519 2.091h1.039l.464-2.091h.92v-.616h-.786zm-4.528 4.13l-.208-1.15h.5zm1.144-1.766l.267-1.1.278 1.1zm1.685 1.75l-.278-1.134h.5z" class="cls-1" transform="translate(-228.747 -2605.516)"/>
                </g>
            </g>
        </g>
        <path id="사각형_2172" fill="none" d="M0 0H50V50H0z" transform="translate(230 574)"/>
    </g>
</svg>
