<svg xmlns="http://www.w3.org/2000/svg" width="40.255" height="40.126" viewBox="0 0 40.255 40.126">
    <defs>
        <style>
            .cls-1{fill:#d9d9d9}
        </style>
    </defs>
    <g id="그룹_701" transform="translate(-3 -3.1)">
        <path id="패스_1931" d="M30.086 55.082a.814.814 0 0 0-.685-.428.763.763 0 0 0-.685.428l-2.955 5.053-5.653-9.807a.762.762 0 0 0-1.37 0l-7.067 12.248a.907.907 0 0 0 0 .814.814.814 0 0 0 .685.428h21.37A.813.813 0 0 0 34.54 63a.823.823 0 0 0-.171-.514zm-10.663-2.741l5.439 9.421-.257.428H13.77zm7.023 9.807l2.912-5.053 2.955 5.053z" class="cls-1" transform="translate(-4.903 -26.758)"/>
        <path id="패스_1932" d="M14.482 43.668a2.484 2.484 0 1 0 0-4.968A2.459 2.459 0 0 0 12 41.184a2.485 2.485 0 0 0 2.482 2.484zm0-3.383a.9.9 0 1 1-.9.9.9.9 0 0 1 .9-.9z" class="cls-1" transform="translate(-5.144 -20.355)"/>
        <path id="패스_1933" d="M31.35 25.9H5.056A2.056 2.056 0 0 0 3 27.956v26.251a2.056 2.056 0 0 0 2.056 2.056h26.251a2.056 2.056 0 0 0 2.056-2.056V27.956A1.969 1.969 0 0 0 31.35 25.9zm.471 28.35a.475.475 0 0 1-.471.471H5.056a.475.475 0 0 1-.471-.471V27.956a.475.475 0 0 1 .471-.471h26.251a.475.475 0 0 1 .471.471V54.25z" class="cls-1" transform="translate(0 -13.036)"/>
        <path id="패스_1934" d="M54.35 3.1H28.056A2.056 2.056 0 0 0 26 5.156v4.882a.814.814 0 1 0 1.627 0V5.156a.475.475 0 0 1 .471-.471H54.35a.475.475 0 0 1 .471.471v26.251a.475.475 0 0 1-.471.471h-4.925a.814.814 0 0 0 0 1.627h4.925a2.056 2.056 0 0 0 2.056-2.056V5.156A2.084 2.084 0 0 0 54.35 3.1z" class="cls-1" transform="translate(-13.15)"/>
    </g>
</svg>
