<svg xmlns="http://www.w3.org/2000/svg" width="48" height="48" viewBox="0 0 48 48">
    <defs>
        <style>
            .cls-1{fill:#ff7a00}
        </style>
    </defs>
    <g id="그룹_3530" transform="translate(-85 -574)">
        <g id="그룹_2168" transform="translate(2754.665 90.463)">
            <g id="그룹_2168-2" transform="translate(-2662.968 490.537)">
                <path id="패스_3227" d="M-2645.968 524.537a17.02 17.02 0 0 1-17-17 17.019 17.019 0 0 1 17-17 17.019 17.019 0 0 1 17 17 17.019 17.019 0 0 1-17 17zm0-32.522a15.54 15.54 0 0 0-15.521 15.522 15.538 15.538 0 0 0 15.521 15.521 15.538 15.538 0 0 0 15.522-15.521 15.539 15.539 0 0 0-15.522-15.522z" class="cls-1" transform="translate(2662.968 -490.537)"/>
            </g>
            <g id="그룹_2169" transform="translate(-2646.752 496.997)">
                <path id="패스_3228" d="M-2646.855 508.675a.738.738 0 0 1-.333-.08l-6.562-3.282a.744.744 0 0 1-.414-.665v-9.843a.748.748 0 0 1 .746-.747.748.748 0 0 1 .747.747v9.383l6.149 3.075a.741.741 0 0 1 .332 1 .741.741 0 0 1-.665.412z" class="cls-1" transform="translate(2654.165 -494.058)"/>
            </g>
        </g>
        <path id="사각형_2171" fill="none" d="M0 0H48V48H0z" transform="translate(85 574)"/>
    </g>
</svg>
