<svg xmlns="http://www.w3.org/2000/svg" width="48" height="48" viewBox="0 0 48 48">
    <defs>
        <style>
            .cls-1{fill:#ff7a00}
        </style>
    </defs>
    <g id="그룹_2559" transform="translate(-225 -515)">
        <g id="그룹_2561" transform="translate(0 4)">
            <g id="그룹_1775" transform="translate(227 516)">
                <g id="그룹_443">
                    <g id="그룹_450">
                        <g id="패스_1820" transform="translate(13.221 6.994)">
                            <g id="그룹_1606" transform="translate(18.896 21.225)">
                                <path id="패스_2381" d="M-2554.01 641.941v-.174l-.329-.961c.229-.079.455-.163.681-.258l.2-.084c.156-.069.307-.139.46-.214l.009.018.121-.049v.3l.375.764q-.358.174-.726.328z" class="cls-1" transform="translate(2554.339 -640.219)"/>
                            </g>
                            <g id="그룹_1607" transform="translate(2.058 12.92)">
                                <path id="패스_2382" d="M-2551.188 645.358l-.075-1.143a10.76 10.76 0 0 0 1.389-.182l.221 1.126a12.335 12.335 0 0 1-1.535.199zm-1.555-.009a12.255 12.255 0 0 1-1.532-.214l.229-1.121a11.426 11.426 0 0 0 1.387.192zm-3.029-.628a12.264 12.264 0 0 1-1.426-.6l.514-1.024a11.4 11.4 0 0 0 1.291.548zm-2.761-1.389a11.73 11.73 0 0 1-1.22-.956l.764-.852a10.277 10.277 0 0 0 1.1.86zm-2.3-2.064a11.407 11.407 0 0 1-.931-1.244l.964-.62a10.34 10.34 0 0 0 .834 1.118zm-1.685-2.594c-.087-.18-.167-.364-.241-.547l-.012-.028-.461-.444.8-.823.735.86c.068.168.141.328.215.486zm-1.778-2.043l-1.062-1.025.8-.823 1.063 1.025z" class="cls-1" transform="translate(2565.361 -634.783)"/>
                            </g>
                            <g id="그룹_1608" transform="translate(0 10.819)">
                                <path id="패스_2383" d="M-2565.729 635.294l-.979-.943.977-.943.8.823-.124.119.123.116z" class="cls-1" transform="translate(2566.708 -633.408)"/>
                            </g>
                            <g id="그룹_1609" transform="translate(2.102)">
                                <path id="패스_2384" d="M-2545.217 647.739l-.654-.943a10.254 10.254 0 0 0 1.155-.926l.779.84a11.734 11.734 0 0 1-1.28 1.029zm2.4-2.226l-.886-.724a10.5 10.5 0 0 0 .853-1.208l.981.59a11.289 11.289 0 0 1-.946 1.342zm1.75-2.926l-1.109-.316a10.774 10.774 0 0 0 .492-1.41l1.108.3a11.75 11.75 0 0 1-.488 1.426zm.81-3.032l-1.137-.147a10.361 10.361 0 0 0 .084-1.32v-.15l1.146-.029v.179a11.589 11.589 0 0 1-.09 1.467zm-24.28-2.669l-.8-.823 1.125-1.085.8.823zm23.1-.429a11.033 11.033 0 0 0-.332-1.445l1.1-.332a12.129 12.129 0 0 1 .367 1.6zm-20.85-1.739l-.8-.823.3-.31c.124-.295.253-.576.4-.851l1.018.526c-.127.248-.244.5-.354.762l-.188.335zm19.992-1.092a10.344 10.344 0 0 0-.715-1.3l.964-.62a11.913 11.913 0 0 1 .792 1.439zm-18.31-1.639l-.941-.657a12.267 12.267 0 0 1 1.034-1.276l.839.782a10.349 10.349 0 0 0-.927 1.15zm16.706-.845a10.391 10.391 0 0 0-1.042-1.05l.751-.863a11.428 11.428 0 0 1 1.16 1.167zm-14.691-1.312l-.719-.892a11.842 11.842 0 0 1 1.347-.94l.588.982a10.93 10.93 0 0 0-1.213.849zm12.465-.631a10.5 10.5 0 0 0-1.292-.72l.486-1.039a11.655 11.655 0 0 1 1.433.8zm-9.925-.886l-.448-1.056a11.779 11.779 0 0 1 1.553-.533l.294 1.108a10.82 10.82 0 0 0-1.397.48zm7.249-.368a10.446 10.446 0 0 0-1.44-.338l.182-1.132a11.871 11.871 0 0 1 1.6.374zm-4.4-.4l-.138-1.137a11.767 11.767 0 0 1 1.417-.086h.224l-.024 1.146h-.2a10.793 10.793 0 0 0-1.272.08z" class="cls-1" transform="translate(2565.332 -626.326)"/>
                            </g>
                        </g>
                        <g id="사각형_1689" transform="translate(8.871 32.857)">
                            <path id="사각형_1856" d="M0 0H3.439V1.412H0z" class="cls-1"/>
                        </g>
                        <g id="패스_1821">
                            <path id="패스_2385" d="M-2572.493 657.844a1.457 1.457 0 0 1-1.458-1.458v-31.767a1.46 1.46 0 0 1 1.458-1.458h16.319a1.461 1.461 0 0 1 1.458 1.458v3.159h1.413v-3.159a2.881 2.881 0 0 0-2.87-2.871h-16.319a2.877 2.877 0 0 0-2.869 2.871v31.767a2.88 2.88 0 0 0 2.869 2.869h16.319a2.88 2.88 0 0 0 2.87-2.869v-3.156h-1.413v3.156a1.459 1.459 0 0 1-1.458 1.458z" class="cls-1" transform="translate(2575.362 -621.748)"/>
                        </g>
                    </g>
                    <path id="패스_1741" d="M-2559.637 635.516l-.995-4.661h1.754l.849 4.661h1.5l1.17-4.661h1.578l1.125 4.661h1.506l.917-4.661h1.771l-1.054 4.661h1.551v1.214h-1.8l-.917 4.125h-2.047l-1.022-4.125h-1.668l-1.01 4.125h-2.046l-.889-4.125h-1.752v-1.214zm2.822 1.214h-.979l.409 2.267zm2.762-1.214l-.541-2.162-.527 2.162zm2.675 1.214h-.981l.539 2.237z" class="cls-1" transform="translate(2582.882 -616.942)"/>
                </g>
            </g>
            <path id="사각형_2093" fill="none" d="M0 0H48V48H0z" transform="translate(225 511)"/>
        </g>
    </g>
</svg>
