<svg xmlns="http://www.w3.org/2000/svg" width="25.176" height="25.2" viewBox="0 0 25.176 25.2">
    <g>
        <path fill="#222" d="M-4356.037 644.269c-.956-.955-1.9-1.9-2.853-2.847l-.316-.315c-.065-.071-.123-.131-.185-.187a2.48 2.48 0 0 0-1.77-.629 2.442 2.442 0 0 0-1.7.806l-.284.283a16.229 16.229 0 0 1-1.619 1.568.251.251 0 0 1-.167-.021l-.325-.16a7.282 7.282 0 0 1-.651-.349 19.7 19.7 0 0 1-4.771-4.345 11.254 11.254 0 0 1-1.561-2.425.25.25 0 0 1 .052-.286c.4-.393.8-.792 1.2-1.192l.558-.562a2.758 2.758 0 0 0 .236-.235 2.473 2.473 0 0 0-.229-3.485l-2.179-2.186c-.322-.324-.645-.648-.972-.968-.057-.062-.106-.111-.157-.157a2.473 2.473 0 0 0-3.491.155c-.278.273-.543.539-.806.806-.386.389-.771.775-1.166 1.154a3.793 3.793 0 0 0-1.2 2.55 9.863 9.863 0 0 0 .74 4.189 24.3 24.3 0 0 0 4.351 7.257 26.844 26.844 0 0 0 8.9 6.966 12.99 12.99 0 0 0 5.056 1.463c.115.009.22.008.342.009h.009a3.945 3.945 0 0 0 3.157-1.367c.367-.409.76-.791 1.141-1.161.214-.206.426-.413.634-.625a2.44 2.44 0 0 0 .188-.186 2.493 2.493 0 0 0-.162-3.518zm-.9 2.888c-.175.177-.382.378-.589.578l-.076.074c-.378.369-.769.75-1.124 1.147a2.906 2.906 0 0 1-2.173.975 3.028 3.028 0 0 1-.391-.026 11.721 11.721 0 0 1-4.576-1.345 25.637 25.637 0 0 1-8.495-6.649 23.146 23.146 0 0 1-4.142-6.892 8.5 8.5 0 0 1-.672-3.668 2.568 2.568 0 0 1 .823-1.78c.311-.293.612-.6.915-.9l.439-.441c.207-.208.415-.417.625-.624a1.4 1.4 0 0 1 .912-.462.288.288 0 0 1 .072-.007 1.437 1.437 0 0 1 1 .483l3.112 3.116a1.155 1.155 0 0 1 .265.269 1.273 1.273 0 0 1 .221.955 1.269 1.269 0 0 1-.518.828l-.3.307c-.53.539-1.059 1.075-1.61 1.6a1 1 0 0 0-.232 1.17 12.074 12.074 0 0 0 1.851 2.975 20.873 20.873 0 0 0 5.071 4.611c.255.153.533.3.818.435l.12.061c.125.062.248.124.363.186a.984.984 0 0 0 1.267-.189c.6-.618 1.2-1.215 1.8-1.812l.159-.158a1.112 1.112 0 0 1 .2-.2 1.248 1.248 0 0 1 .932-.255 1.261 1.261 0 0 1 .839.479l.293.289q1.425 1.414 2.841 2.835a1.164 1.164 0 0 1 .227.235 1.272 1.272 0 0 1 .238.954 1.28 1.28 0 0 1-.504.846z" transform="translate(4380.398 -625.93)"/>
    </g>
</svg>
