<svg xmlns="http://www.w3.org/2000/svg" width="50.137" height="40.979" viewBox="0 0 50.137 40.979">
    <defs>
        <linearGradient id="b592skz8ob" x1=".768" x2=".298" y1=".762" y2=".35" gradientUnits="objectBoundingBox">
            <stop offset="0" stop-color="#ff738f"/>
            <stop offset="1" stop-color="#feb63a"/>
        </linearGradient>
        <filter id="to4725laha" width="50.137" height="40.979" x="0" y="0" filterUnits="userSpaceOnUse">
            <feOffset dy="3"/>
            <feGaussianBlur result="blur" stdDeviation="3"/>
            <feFlood flood-opacity=".161"/>
            <feComposite in2="blur" operator="in"/>
            <feComposite in="SourceGraphic"/>
        </filter>
    </defs>
    <g>
        <path fill="none" d="M0 0H44V38H0z" transform="translate(3.998 2.977)"/>
        <g filter="url(#to4725laha)" transform="translate(3.998 2.977) matrix(1, 0, 0, 1, -4, -2.98)">
            <g fill="url(#b592skz8ob)" transform="translate(-6936 -564.01)">
                <path d="M6961.09 591.986h-.053c-.818 0-1.586-.32-2.161-.898l-.036-.037-.033-.04-11.958-14.814c-1.15-1.198-1.137-3.111.04-4.291.58-.58 1.35-.899 2.167-.899.53 0 1.053.138 1.512.4.057.033.197.112 10.496 7.492 10.302-7.382 10.443-7.462 10.504-7.496.455-.258.977-.396 1.506-.396.82 0 1.588.32 2.166.899 1.178 1.181 1.191 3.094.041 4.29l-11.958 14.815-.033.041-.037.037c-.576.578-1.344.897-2.162.897z"/>
                <path fill="#fff" d="M6949.056 572.007c-.528 0-1.056.202-1.459.605-.805.807-.804 2.113 0 2.92l11.988 14.851c.4.403.926.603 1.452.603h.054c.526 0 1.053-.2 1.454-.603l11.988-14.851c.804-.807.804-2.113 0-2.92-.403-.403-.93-.605-1.459-.605-.35 0-.701.09-1.015.267-.16.09-10.995 7.855-10.995 7.855s-10.833-7.764-10.991-7.853c-.315-.18-.666-.269-1.017-.269m0-2v2-2c.702 0 1.395.183 2.003.529.119.067.273.159 10.005 7.133 9.769-7 9.892-7.069 10.012-7.137.604-.342 1.297-.525 1.998-.525 1.086 0 2.107.424 2.874 1.192 1.551 1.556 1.58 4.068.086 5.657l-11.933 14.783-.066.082-.074.074c-.765.768-1.785 1.19-2.87 1.19h-.054c-1.087 0-2.106-.423-2.87-1.192l-.073-.073-.065-.08-11.933-14.784c-1.493-1.59-1.465-4.103.085-5.657.77-.77 1.79-1.192 2.875-1.192z"/>
            </g>
        </g>
    </g>
</svg>
