<svg xmlns="http://www.w3.org/2000/svg" width="48" height="48" viewBox="0 0 48 48">
    <defs>
        <style>
            .cls-1{fill:#ff7a00}
        </style>
    </defs>
    <g id="그룹_2560" transform="translate(-83 -515)">
        <g id="그룹_1857" transform="translate(2698.372 -99.418)">
            <path id="패스_2743" d="M-2580.612 628.629v1.423h4.231v2.739h-28.611a1.371 1.371 0 0 1-1.371-1.369 1.372 1.372 0 0 1 1.371-1.369h3v-1.423h-3a2.8 2.8 0 0 0-2.794 2.793v20.157a3.085 3.085 0 0 0 3.08 3.082h29.748v-26.033zm4.231 15.919h-9.3a1.346 1.346 0 0 1-1.343-1.345 1.346 1.346 0 0 1 1.343-1.345h9.3zm0-4.114h-9.3a2.771 2.771 0 0 0-2.767 2.769 2.772 2.772 0 0 0 2.767 2.769h9.3v7.267h-28.325a1.66 1.66 0 0 1-1.656-1.658V633.84a2.751 2.751 0 0 0 1.371.374h28.611z" class="cls-1" transform="translate(0 5.256)"/>
            <path id="사각형_1879" d="M0 0H1.423V1.423H0z" class="cls-1" transform="translate(-2599.829 635.254)"/>
            <path id="사각형_1880" d="M0 0H1.423V2.38H0z" class="cls-1" transform="translate(-2599.829 630.495)"/>
            <path id="패스_2744" d="M-2600.773 624.5h.712v-1.424h-2.135v2.135h1.423z" class="cls-1" transform="translate(2.367 2.904)"/>
            <path id="사각형_1881" d="M0 0H2.604V1.423H0z" class="cls-1" transform="translate(-2589.883 625.981)"/>
            <path id="사각형_1882" d="M0 0H2.604V1.423H0z" class="cls-1" transform="translate(-2595.09 625.981)"/>
            <path id="패스_2745" d="M-2589.416 623.077h-2.135v1.423h.712v.712h1.423z" class="cls-1" transform="translate(6.876 2.904)"/>
            <path id="사각형_1883" d="M0 0H1.423V2.38H0z" class="cls-1" transform="translate(-2583.964 630.496)"/>
            <path id="사각형_1884" d="M0 0H1.423V1.423H0z" class="cls-1" transform="translate(-2583.964 635.254)"/>
            <path id="패스_2746" d="M-2599.422 621.731a.714.714 0 0 0 .615.352.729.729 0 0 0 .359-.1.712.712 0 0 0 .255-.975l-1.823-3.111a.716.716 0 0 0-.975-.253.711.711 0 0 0-.253.974z" class="cls-1" transform="translate(0.335 0.519)"/>
            <path id="패스_2747" d="M-2592.607 621.986a.731.731 0 0 0 .36.1.714.714 0 0 0 .615-.352l1.823-3.111a.71.71 0 0 0-.254-.974.713.713 0 0 0-.974.253l-1.825 3.111a.715.715 0 0 0 .255.973z" class="cls-1" transform="translate(8.672 0.519)"/>
            <path id="패스_2748" d="M-2595.8 621.566a.711.711 0 0 0 .711-.712v-3.923a.711.711 0 0 0-.711-.712.712.712 0 0 0-.712.712v3.923a.712.712 0 0 0 .712.712z" class="cls-1" transform="translate(4.775 -0.043)"/>
        </g>
        <path id="사각형_2092" fill="none" d="M0 0H48V48H0z" transform="translate(83 515)"/>
    </g>
</svg>
