<svg xmlns="http://www.w3.org/2000/svg" width="40" height="40" viewBox="0 0 40 40">
    <defs>
        <style>
            .cls-1{fill:#fff}
        </style>
    </defs>
    <g id="그룹_2688" transform="translate(-271.285 -745.428)">
        <g id="그룹_2094" transform="translate(282.409 750.309)">
            <path id="사각형_1912" d="M0 0H0.952V8.736H0z" class="cls-1" transform="translate(3.278 10.808)"/>
            <path id="사각형_1913" d="M0 0H0.953V8.736H0z" class="cls-1" transform="translate(13.769 10.808)"/>
            <path id="사각형_1914" d="M0 0H0.952V8.736H0z" class="cls-1" transform="translate(6.557 10.808)"/>
            <path id="사각형_1915" d="M0 0H0.952V8.736H0z" class="cls-1" transform="translate(8.524 10.808)"/>
            <path id="사각형_1916" d="M0 0H0.953V8.736H0z" class="cls-1" transform="translate(11.802 10.808)"/>
            <path id="패스_3146" d="M233.857 48.292h-13.131a2.432 2.432 0 0 0-2.434 2.424v26.152a2.432 2.432 0 0 0 2.434 2.424h13.131a2.432 2.432 0 0 0 2.435-2.424V50.716a2.432 2.432 0 0 0-2.435-2.424zm-13.131.926h13.131a1.5 1.5 0 0 1 1.5 1.5v1.5h-16.135v-1.5a1.5 1.5 0 0 1 1.504-1.5zm14.635 3.923V73.79h-16.139V53.14zm-1.5 25.226h-13.135a1.5 1.5 0 0 1-1.5-1.5v-2.152h16.139v2.152a1.5 1.5 0 0 1-1.508 1.499z" class="cls-1" transform="translate(-218.292 -48.292)"/>
            <path id="사각형_1917" d="M0 0H2.688V0.952H0z" class="cls-1" transform="translate(7.656 27.36)"/>
        </g>
        <path id="사각형_2074" fill="none" d="M0 0H40V40H0z" transform="translate(271.285 745.428)"/>
    </g>
</svg>
