<svg xmlns="http://www.w3.org/2000/svg" width="40" height="40" viewBox="0 0 40 40">
    <g>
        <g>
            <path fill="#222" stroke="rgba(0,0,0,0)" stroke-miterlimit="10" d="M-30.689 4315.12a2.432 2.432 0 0 1-2.434-2.425v-26.151a2.432 2.432 0 0 1 2.434-2.425h13.13a2.433 2.433 0 0 1 2.436 2.425v26.151a2.433 2.433 0 0 1-2.436 2.425zm-1.505-2.425a1.5 1.5 0 0 0 1.505 1.5h13.13a1.5 1.5 0 0 0 1.5-1.5v-2.152h-16.135zm0-3.078h16.139v-20.65h-16.139zm0-23.074v1.5h16.139v-1.5a1.5 1.5 0 0 0-1.5-1.5h-13.13a1.5 1.5 0 0 0-1.509 1.5zm6.726 25.888v-.953h2.688v.953zm6.113-8.768v-8.736h.953v8.736zm-1.968 0v-8.736h.953v8.736zm-3.278 0v-8.736h.953v8.736zm-1.967 0v-8.736h.952v8.736zm-3.278 0v-8.736h.952v8.736z" transform="translate(-271.285 -745.428) translate(282.409 750.309) translate(33.123 -4284.119)"/>
        </g>
        <path fill="none" d="M0 0H40V40H0z" transform="translate(-271.285 -745.428) translate(271.285 745.428)"/>
    </g>
</svg>
