<svg xmlns="http://www.w3.org/2000/svg" width="40" height="40" viewBox="0 0 40 40">
    <g>
        <g>
            <path fill="#222" stroke="rgba(0,0,0,0)" stroke-miterlimit="10" d="M208.434 4315a2.431 2.431 0 0 1-2.434-2.424v-26.151a2.432 2.432 0 0 1 2.434-2.424h13.132a2.432 2.432 0 0 1 2.434 2.424v26.151a2.432 2.432 0 0 1-2.434 2.424zm-1.505-2.424a1.5 1.5 0 0 0 1.505 1.5h13.132a1.5 1.5 0 0 0 1.5-1.5v-2.152h-16.137zm0-3.078h16.141v-20.649h-16.141zm0-23.074v1.5h16.141v-1.5a1.5 1.5 0 0 0-1.5-1.5h-13.136a1.5 1.5 0 0 0-1.505 1.5zm6.7 25.835v-.97h2.741v.97zm2.735-7.642v-4.4h4.4v4.4zm.97-.969h2.456v-2.456h-2.456zm-8.1.969v-4.4h4.4v4.4zm.97-.969h2.455v-2.456h-2.455zm4.306-.825v-2.741h.97v2.741zm-2.2-3.45v-.97h2.255v-1.57h.971v2.541zm3.92-.04v-.971h2.74v.971zm-7.162 0v-.971h2.055v.971zm7.29-1.853v-4.4h4.4v4.4zm.97-.97h2.456v-2.455h-2.456zm-8.1.97v-4.4h4.4v4.4zm.97-.97h2.455v-2.455h-2.455zm4.306-.846v-2.741h.97v2.741z" transform="translate(-50 -742.714) translate(61 747.714) translate(-206 -4284)"/>
        </g>
        <path fill="none" d="M0 0H40V40H0z" transform="translate(-50 -742.714) translate(50 742.714)"/>
    </g>
</svg>
