<svg xmlns="http://www.w3.org/2000/svg" width="14" height="14" viewBox="0 0 14 14">
    <g>
        <g fill="none" stroke="#ccc" transform="translate(-79.333 -194.333) translate(79.333 194.333)">
            <circle cx="7" cy="7" r="7" stroke="none"/>
            <circle cx="7" cy="7" r="6.5"/>
        </g>
        <path fill="#ccc" d="M-2717.759 471.039a.379.379 0 0 0 .132-.141.391.391 0 0 0 .006-.39.382.382 0 0 0-.383-.193.363.363 0 0 0-.112.039l-.038.022a2.385 2.385 0 0 1-1.913.139 2.375 2.375 0 0 1-1.422-1.4 2.469 2.469 0 0 1 .032-1.855 2.39 2.39 0 0 1 1.319-1.289 2.339 2.339 0 0 1 2.855.92l-.995.583a.158.158 0 0 0-.076.138.158.158 0 0 0 .079.139l2.262 1.32a.155.155 0 0 0 .151 0 .162.162 0 0 0 .082-.129l.172-2.753a.164.164 0 0 0-.073-.143.158.158 0 0 0-.158 0l-.761.446a3.172 3.172 0 0 0-2.1-1.42 3.122 3.122 0 0 0-2.528.639 3.217 3.217 0 0 0-1.2 2.22 3.225 3.225 0 0 0 .409 1.9 3.322 3.322 0 0 0 .357.51 3.071 3.071 0 0 0 3.9.711l.009-.006z" transform="translate(-79.333 -194.333) translate(2805.358 -266.911)"/>
    </g>
</svg>
