<svg xmlns="http://www.w3.org/2000/svg" width="46" height="46" viewBox="0 0 46 46">
    <defs>
        <style>
            .cls-2{fill:#ff7a00}
        </style>
    </defs>
    <g id="그룹_3411" transform="translate(-10 -476)">
        <g id="그룹_3409" transform="translate(2495.17 -70.492)">
            <path id="패스_4577" fill="#222" d="M-2448.2 552.751h-12.681v-.721a1.538 1.538 0 0 0-1.538-1.538 1.539 1.539 0 0 0-1.538 1.538v.721h-12.682a.53.53 0 0 0-.531.531v18.468a.53.53 0 0 0 .531.531h28.438a.53.53 0 0 0 .531-.531v-18.468a.53.53 0 0 0-.53-.531zm-14.694-.721a.476.476 0 0 1 .476-.476.476.476 0 0 1 .476.476v1.836a.477.477 0 0 1-.476.478.477.477 0 0 1-.476-.478zm14.163 19.19h-27.376v-17.407h12.151v.053a1.541 1.541 0 0 0 1.538 1.54 1.54 1.54 0 0 0 1.538-1.54v-.053h12.15z"/>
            <path id="패스_4578" d="M-2468.619 561.163a2.513 2.513 0 0 0 1.252-.68 2.518 2.518 0 0 0 .738-1.791 2.519 2.519 0 0 0-.745-1.788 2.606 2.606 0 0 0-3.58.007 2.535 2.535 0 0 0 .008 3.58 2.519 2.519 0 0 0 1.235.67 4.472 4.472 0 0 0-3.941 4.385v.735a.526.526 0 0 0 .206.419 6.98 6.98 0 0 0 4.273 1.458 6.98 6.98 0 0 0 4.272-1.458.527.527 0 0 0 .206-.419v-.74a4.492 4.492 0 0 0-3.924-4.378zm-1.582-3.5a1.475 1.475 0 0 1 1.041-.433 1.464 1.464 0 0 1 1.038.429 1.462 1.462 0 0 1 .432 1.036 1.467 1.467 0 0 1-.429 1.041 1.469 1.469 0 0 1-2.077 0 1.47 1.47 0 0 1-.004-2.075zm4.444 8.352a5.934 5.934 0 0 1-6.834 0v-.463a3.421 3.421 0 0 1 3.417-3.381h.036a3.435 3.435 0 0 1 3.38 3.378z" class="cls-2" transform="translate(0.218 0.353)"/>
            <path id="패스_4579" d="M-2463.249 557.7a.53.53 0 0 0-.531.531.531.531 0 0 0 .531.531h10.268a.531.531 0 0 0 .531-.531.53.53 0 0 0-.531-.531z" class="cls-2" transform="translate(0.83 0.447)"/>
            <path id="패스_4580" d="M-2452.981 560.82h-10.268a.53.53 0 0 0-.531.531.531.531 0 0 0 .531.531h10.268a.531.531 0 0 0 .531-.531.53.53 0 0 0-.531-.531z" class="cls-2" transform="translate(0.83 0.64)"/>
            <path id="패스_4581" d="M-2452.981 563.936h-10.268a.531.531 0 0 0-.531.531.531.531 0 0 0 .531.531h10.268a.531.531 0 0 0 .531-.531.531.531 0 0 0-.531-.531z" class="cls-2" transform="translate(0.83 0.833)"/>
        </g>
        <path id="사각형_2313" fill="none" d="M0 0H46V46H0z" transform="translate(10 476)"/>
    </g>
</svg>
