<svg xmlns="http://www.w3.org/2000/svg" width="36" height="36" viewBox="0 0 36 36">
    <defs>
        <style>
            .cls-3{fill:none}
        </style>
    </defs>
    <g id="그룹_2558" transform="translate(-162 -124)">
        <g id="그룹_1838" transform="translate(19 -133.666)">
            <g id="타원_103" fill="none" stroke="#ff7a00" transform="translate(145 259.666)">
                <circle cx="16" cy="16" r="16" stroke="none"/>
                <circle cx="16" cy="16" r="15.5" class="cls-3"/>
            </g>
            <path id="패스_3529" fill="#ff7a00" d="M-3443.237-1459.271h-1.964a1.8 1.8 0 0 0 .634-1.332 1.657 1.657 0 0 0-1.661-1.641h-.028a2.038 2.038 0 0 0-1.875 1.511 2.039 2.039 0 0 0-1.891-1.51h-.019a1.663 1.663 0 0 0-1.652 1.615v.03a1.793 1.793 0 0 0 .634 1.327h-1.965a1.053 1.053 0 0 0-1.047 1.054v1.744a1.048 1.048 0 0 0 .937 1.044v5.072a1.054 1.054 0 0 0 1.046 1.058h7.915a1.054 1.054 0 0 0 1.046-1.054v-5.074a1.044 1.044 0 0 0 .937-1.043v-1.748a1.053 1.053 0 0 0-1.047-1.053zm-.735 3.855v5.063a.205.205 0 0 1-.2.2h-3.538v-5.268zm-3.68-3.869c.127-.789.478-2.105 1.4-2.108h.048a.784.784 0 0 1 .531.215.805.805 0 0 1 .261.561v.018a1.033 1.033 0 0 1-.523.833 3.472 3.472 0 0 1-1.717.481zm4.618 1.059v1.753a.2.2 0 0 1-.2.206h-4.474v-2.157h4.474a.2.2 0 0 1 .144.06.2.2 0 0 1 .056.138zm-5.519 2.81v5.268h-3.535a.2.2 0 0 1-.2-.2v-5.063zm-1.375-5.974c.856.073 1.192 1.337 1.317 2.1a3.482 3.482 0 0 1-1.719-.483 1.029 1.029 0 0 1-.521-.829.809.809 0 0 1 .761-.793zm1.375 2.969v2.156h-4.472a.2.2 0 0 1-.143-.059.2.2 0 0 1-.059-.144v-1.749a.2.2 0 0 1 .2-.2z" transform="translate(3609.072 1730.621)"/>
        </g>
        <path id="사각형_2091" d="M0 0H36V36H0z" class="cls-3" transform="translate(162 124)"/>
    </g>
</svg>
