<svg xmlns="http://www.w3.org/2000/svg" width="46" height="46" viewBox="0 0 46 46">
    <defs>
        <style>
            .cls-1{fill:#ff7a00}
        </style>
    </defs>
    <g id="그룹_3412" transform="translate(-10 -368)">
        <g id="그룹_1858" transform="translate(2564.516 -173.299)">
            <path id="패스_2749" d="M-2530.071 550.179a8.283 8.283 0 0 0-6.51 3.2 8.238 8.238 0 0 0 1.482 11.538 8.221 8.221 0 0 0 5.028 1.713 8.218 8.218 0 0 0 5.027-1.713 8.276 8.276 0 0 0 3.2-6.51 8.236 8.236 0 0 0-8.227-8.228zm-4.222 14.088v-.624a4.194 4.194 0 0 1 1.268-2.972 4.376 4.376 0 0 1 3-1.205 4.245 4.245 0 0 1 4.177 4.175v.626a7.226 7.226 0 0 1-8.445 0zm9.441-.868a5.185 5.185 0 0 0-1.488-3.463 5.185 5.185 0 0 0-3.677-1.568h-.055a5.228 5.228 0 0 0-5.218 5.034 7.238 7.238 0 0 1-.5-9.414 7.273 7.273 0 0 1 5.719-2.809 7.234 7.234 0 0 1 7.225 7.225 7.28 7.28 0 0 1-2.006 4.996z" class="cls-1"/>
            <path id="패스_2750" d="M-2528.535 553.006a2.86 2.86 0 0 0-1.513-.437h-.007a2.834 2.834 0 0 0-1.258.3 2.664 2.664 0 0 0-.792.536 2.9 2.9 0 0 0 .008 4.09 2.889 2.889 0 0 0 2.041.84 2.882 2.882 0 0 0 2.049-.849 2.872 2.872 0 0 0 .843-2.047 2.866 2.866 0 0 0-.851-2.043 2.646 2.646 0 0 0-.52-.39zm-3.4 2.446a1.883 1.883 0 0 1 1.877-1.883 1.859 1.859 0 0 1 1.324.548 1.862 1.862 0 0 1 .554 1.328 1.894 1.894 0 0 1-.551 1.333 1.873 1.873 0 0 1-1.325.551 1.884 1.884 0 0 1-1.874-1.877z" class="cls-1"/>
            <path id="패스_2751" fill="#222" d="M-2519.466 544.3h-21.211a3.505 3.505 0 0 0-3.5 3.5v2.9h-.633a1.707 1.707 0 0 0-1.706 1.705 1.707 1.707 0 0 0 1.706 1.705h.633v8.6h-.633a1.707 1.707 0 0 0-1.706 1.7 1.707 1.707 0 0 0 1.706 1.705h.633v2.894a3.5 3.5 0 0 0 3.5 3.5h21.211a3.5 3.5 0 0 0 3.5-3.5V547.8a3.5 3.5 0 0 0-3.5-3.5zm-26.05 8.1a.706.706 0 0 1 .706-.705h2.2a.705.705 0 0 1 .7.705.705.705 0 0 1-.7.705h-2.2a.706.706 0 0 1-.706-.705zm0 12.012a.706.706 0 0 1 .706-.7h2.2a.7.7 0 0 1 .7.7.706.706 0 0 1-.7.705h-2.2a.707.707 0 0 1-.706-.707zm28.55 4.6a2.5 2.5 0 0 1-2.5 2.5h-21.211a2.5 2.5 0 0 1-2.5-2.5v-2.894h.564a1.707 1.707 0 0 0 1.7-1.705 1.706 1.706 0 0 0-1.7-1.7h-.564v-8.6h.564a1.707 1.707 0 0 0 1.7-1.705 1.707 1.707 0 0 0-1.7-1.705h-.564v-2.9a2.5 2.5 0 0 1 2.5-2.5h21.211a2.5 2.5 0 0 1 2.5 2.5z"/>
        </g>
        <path id="사각형_2312" fill="none" d="M0 0H46V46H0z" transform="translate(10 368)"/>
    </g>
</svg>
