<svg xmlns="http://www.w3.org/2000/svg" id="Notice_Circle_Icon_Line_" width="46" height="46" viewBox="0 0 46 46">
    <defs>
        <style>
            .cls-3{fill:none}.cls-2{fill:#595959}
        </style>
    </defs>
    <g id="그룹_868" transform="translate(-2259 1364.496)">
        <g id="그룹_867" transform="translate(2262.407 -1362.246)">
            <g id="타원_103" fill="none" stroke="#595959" transform="translate(-.407)">
                <circle cx="20" cy="20" r="20" stroke="none"/>
                <circle cx="20" cy="20" r="19.5" class="cls-3"/>
            </g>
        </g>
    </g>
    <g id="그룹_869" transform="translate(2592.594 102.832)">
        <path id="패스_1990" d="M-2568.335-87.9a1.825 1.825 0 0 0-1.429-.688 1.828 1.828 0 0 0-1.595.934 1.531 1.531 0 0 0-.228.742c0 .051-.007.1-.007.153a1.838 1.838 0 0 0 .017.245l.284 7.321a1.541 1.541 0 0 0 1.54 1.481 1.541 1.541 0 0 0 1.54-1.481l.295-7.593a1.534 1.534 0 0 0-.417-1.114z" class="cls-2"/>
        <circle id="타원_127" cx="1.827" cy="1.827" r="1.827" class="cls-2" transform="translate(-2571.582 -76.354)"/>
    </g>
    <path id="사각형_2160" d="M0 0H46V46H0z" class="cls-3"/>
</svg>
