<svg xmlns="http://www.w3.org/2000/svg" width="46" height="46" viewBox="0 0 46 46">
    <defs>
        <style>
            .cls-2{fill:#222}
        </style>
    </defs>
    <g id="그룹_3410" transform="translate(-10 -583)">
        <path id="사각형_2314" fill="none" d="M0 0H46V46H0z" transform="translate(10 583)"/>
        <g id="그룹_3935" transform="translate(3637.296 2064.195)">
            <path id="패스_5059" d="M-3613.182-1451.4a.832.832 0 0 1-.827-.829v-11.171h8.744v-1.019h-9.915a.824.824 0 0 1-.588-.25.817.817 0 0 1-.239-.583v-3.72a.834.834 0 0 1 .824-.829h9.917a9.358 9.358 0 0 1-4.641-1.012h-5.271a1.852 1.852 0 0 0-1.835 1.849v3.713a1.825 1.825 0 0 0 1.649 1.826l.344.035v11.154a1.851 1.851 0 0 0 1.834 1.855h7.921v-1.021z" class="cls-2" transform="translate(0 -0.66)"/>
            <path id="패스_5060" d="M-3593.019-1470.812H-3598.292a9.359 9.359 0 0 1-4.641 1.012h9.916a.815.815 0 0 1 .581.241.823.823 0 0 1 .248.585v3.723a.831.831 0 0 1-.824.829h-9.917v1.023h8.743v11.169a.832.832 0 0 1-.814.829h-7.928v1.021h7.917a1.853 1.853 0 0 0 1.833-1.849v-11.155l.346-.033a1.826 1.826 0 0 0 1.647-1.828v-3.72a1.852 1.852 0 0 0-1.834-1.847z" class="cls-2" transform="translate(-1.33 -0.66)"/>
            <path id="패스_5061" fill="#ff7a00" d="M-3603.734-1464.056v-6.4a9.359 9.359 0 0 0 4.641-1.012h.006-.005l.819-.674a3.436 3.436 0 0 0 1.23-2.553 3.131 3.131 0 0 0-3.124-3.092h-.079c-1.593 0-2.817 1.007-3.635 2.994l-.354.86-.354-.86c-.813-1.986-2.036-2.993-3.635-2.993h-.078a3.106 3.106 0 0 0-3.122 3.049v.052a3.431 3.431 0 0 0 1.231 2.548l.816.672a9.356 9.356 0 0 0 4.641 1.012v19.418h1v-13.019zm.127-7.892c.29-1.8 1.113-4.823 3.357-4.827a2.077 2.077 0 0 1 1.514.56 2.127 2.127 0 0 1 .68 1.471v.061a2.585 2.585 0 0 1-1.311 2.1 7.8 7.8 0 0 1-3.859 1.077h-.459zm-1.638.443a7.787 7.787 0 0 1-3.868-1.082 2.573 2.573 0 0 1-1.3-2.085v-.019a2.115 2.115 0 0 1 1.966-2.079h.361v.005c2.137.12 2.936 3.056 3.223 4.822l.071.444z" transform="translate(-0.528)"/>
        </g>
    </g>
</svg>
