<svg xmlns="http://www.w3.org/2000/svg" id="그룹_2672" width="17" height="10" viewBox="0 0 17 10">
    <defs>
        <style>
            .cls-1{fill:#a3a3a3}.cls-2{fill:none}
        </style>
    </defs>
    <g id="Arrow">
        <path id="패스_1945" d="M-3475.673-876.585a.736.736 0 0 0-.513-.211.728.728 0 0 0-.507.205l-5.762 5.761-5.759-5.76a.732.732 0 0 0-.507-.2.744.744 0 0 0-.537.231.737.737 0 0 0 0 1l6.283 6.285a.727.727 0 0 0 .517.214.729.729 0 0 0 .518-.214l6.275-6.274a.729.729 0 0 0 .213-.515.734.734 0 0 0-.221-.522z" class="cls-1" transform="translate(3490.863 877.797)"/>
        <g id="그룹_2685" transform="translate(21714 21314)">
            <g id="Arrow-2" transform="translate(-21712.594 -21313)">
                <path id="패스_1945-2" d="M-3475.673-876.585a.736.736 0 0 0-.513-.211.728.728 0 0 0-.507.205l-5.762 5.761-5.759-5.76a.732.732 0 0 0-.507-.2.744.744 0 0 0-.537.231.737.737 0 0 0 0 1l6.283 6.285a.727.727 0 0 0 .517.214.729.729 0 0 0 .518-.214l6.275-6.274a.729.729 0 0 0 .213-.515.734.734 0 0 0-.221-.522z" class="cls-1" transform="translate(3489.457 876.797)"/>
            </g>
            <path id="사각형_2168" d="M0 0H17V10H0z" class="cls-2" transform="translate(-21714 -21314)"/>
        </g>
    </g>
    <path id="사각형_2168-2" d="M0 0H17V10H0z" class="cls-2"/>
</svg>
