<svg xmlns="http://www.w3.org/2000/svg" width="48" height="40" viewBox="0 0 48 40">
    <defs>
        <style>
            .cls-1{fill:#595959}
        </style>
    </defs>
    <g id="그룹_2595" transform="translate(-22 -208)">
        <g id="그룹_810" transform="translate(33 215.896)">
            <g id="그룹_633" transform="translate(0 0)">
                <g id="그룹_446">
                    <path id="패스_1816" d="M200.974 2622.085h-4.467v-12.649h18.057v9.084h.98v-10.205h-20.019v14.891h5.448z" class="cls-1" transform="translate(-195.525 -2608.315)"/>
                </g>
                <g id="그룹_447" transform="translate(0 2.93)">
                    <path id="패스_1817" d="M215.545 2611.647h-20.019v4.451h20.019zm-.981 3.331h-18.057v-2.209h18.057z" class="cls-1" transform="translate(-195.526 -2611.647)"/>
                </g>
            </g>
            <g id="그룹_632" transform="translate(5.064 9.755)">
                <g id="그룹_448" transform="translate(1.98 5.656)">
                    <path id="패스_1818" d="M203.537 2629.419h3.76v-3.579h-3.76zm.98-2.458h1.8v1.338h-1.8z" class="cls-1" transform="translate(-203.537 -2625.84)"/>
                    <path id="사각형_1685" d="M0 0H3.155V1.121H0z" class="cls-1" transform="translate(0 4.979)"/>
                    <path id="사각형_1686" d="M0 0H3.155V1.121H0z" class="cls-1" transform="translate(4.302 4.979)"/>
                    <path id="사각형_1687" d="M0 0H3.155V1.121H0z" class="cls-1" transform="translate(8.605 4.979)"/>
                    <path id="사각형_1688" d="M0 0H3.155V1.121H0z" class="cls-1" transform="translate(12.906 4.979)"/>
                </g>
                <g id="그룹_449">
                    <path id="패스_1819" d="M221.307 2619.408h-20.022v14.892h20.022zm-.98 13.77h-18.058v-12.65h18.058z" class="cls-1" transform="translate(-201.285 -2619.408)"/>
                </g>
            </g>
        </g>
        <path id="사각형_2106" fill="none" d="M0 0H48V40H0z" transform="translate(22 208)"/>
    </g>
</svg>
