<svg xmlns="http://www.w3.org/2000/svg" width="48" height="40" viewBox="0 0 48 40">
    <defs>
        <style>
            .cls-1{fill:#595959}
        </style>
    </defs>
    <g id="그룹_2594" transform="translate(-89 -208)">
        <g id="그룹_811" transform="translate(99.834 214.594)">
            <path id="패스_1553" d="M-168.4 2448.917l-1.807-10.482v-10.773a2.164 2.164 0 0 0-2.162-2.162h-18.163a2.164 2.164 0 0 0-2.162 2.162v10.773l-1.807 10.482a2.164 2.164 0 0 0 .477 1.761 2.162 2.162 0 0 0 1.654.769h21.839a2.162 2.162 0 0 0 1.654-.769 2.163 2.163 0 0 0 .477-1.761zm-23.429-18.228h20.757v7.352h-20.757zm20.825 8.217l1.566 9.081h-24.026l1.566-9.081zm-19.528-12.54h18.163a1.3 1.3 0 0 1 1.3 1.3v2.162h-20.757v-2.162a1.3 1.3 0 0 1 1.291-1.3zm20.993 23.755a1.3 1.3 0 0 1-.992.462h-21.839a1.3 1.3 0 0 1-.993-.462 1.3 1.3 0 0 1-.286-1.057l.037-.212h24.324l.037.212a1.3 1.3 0 0 1-.291 1.057z" class="cls-1" transform="translate(194.536 -2425.5)"/>
            <path id="패스_1554" d="M-165.368 2480.255h2.741v.914h-2.741z" class="cls-1" transform="translate(170.634 -2470.328)"/>
            <path id="패스_1555" d="M-141.562 2480.255h2.741v.914h-2.741z" class="cls-1" transform="translate(151.125 -2470.328)"/>
            <path id="패스_1556" d="M-117.755 2480.255h2.741v.914h-2.741z" class="cls-1" transform="translate(131.616 -2470.328)"/>
            <path id="패스_1557" d="M-93.949 2480.255h2.741v.914h-2.741z" class="cls-1" transform="translate(112.107 -2470.328)"/>
            <path id="패스_1559" d="M-103.471 2523.105h4.571v.914h-4.568z" class="cls-1" transform="translate(119.829 -2505.41)"/>
            <path id="패스_1560" d="M-165.368 2523.105h4.568v.914h-4.568z" class="cls-1" transform="translate(170.607 -2505.41)"/>
            <path id="패스_1728" d="M529.677 2685.255l-.423-1.985H530l.361 1.985H531l.5-1.985h.672l.479 1.985h.641l.392-1.985h.753l-.449 1.985h.66v.517h-.772l-.392 1.756h-.872l-.436-1.756h-.71l-.43 1.756h-.871l-.38-1.756h-.741v-.517zm1.2.517h-.417l.174.965zm1.177-.517l-.23-.921-.224.921zm1.139.517h-.417l.23.953z" class="cls-1" transform="translate(-518.768 -2667.29)"/>
        </g>
        <path id="사각형_2105" fill="none" d="M0 0H48V40H0z" transform="translate(89 208)"/>
    </g>
</svg>
