<svg xmlns="http://www.w3.org/2000/svg" width="56" height="46" viewBox="0 0 56 46">
    <defs>
        <style>
            .cls-1{fill:#ff7a00}.cls-2{fill:none}.cls-3{fill:#595959}
        </style>
    </defs>
    <g id="그룹_4482" transform="translate(-289.833 -207.697)">
        <g id="그룹_814" transform="translate(301.067 218.806)">
            <g id="그룹_297" transform="translate(0 0)">
                <path id="사각형_1684" d="M0 0H1.044V29.339H0z" class="cls-1" transform="translate(33.085 6.504) rotate(90)"/>
                <path id="사각형_1683" d="M0 0H0.935V18.744H0z" class="cls-1" transform="translate(9.873 0.912)"/>
                <path id="사각형_1595" d="M0 0H1.939V3.247H0z" class="cls-2" transform="translate(0.969 8.66)"/>
                <path id="패스_1561" d="M-211.527 2018.846h-.97v-1.083h.97zm1.938 0h-.969v-1.083h.969z" class="cls-2" transform="translate(240.735 -2015.598)"/>
                <path id="패스_1562" d="M-271.506 2011.541h-27.269a1.548 1.548 0 0 0-1.454 1.624v1.624h-1.454a1.547 1.547 0 0 0-1.454 1.623v17.32a1.548 1.548 0 0 0 1.454 1.624h22.907v-1.083h-22.907a.516.516 0 0 1-.485-.542v-9.2h1.939v5.954a1.547 1.547 0 0 0 1.454 1.623h24.846v1.624a.522.522 0 0 1-.485.542h-1.454v1.083h1.454a1.548 1.548 0 0 0 1.454-1.624v-1.624h1.454a1.547 1.547 0 0 0 1.454-1.623v-17.32a1.548 1.548 0 0 0-1.454-1.625zm-28.723 11.907h-1.939v-3.248h1.939zm29.207 2.166v4.871a.522.522 0 0 1-.484.541h-27.269a.516.516 0 0 1-.484-.541v-12.449h-.969v1.083h-1.939v-2.706a.516.516 0 0 1 .485-.541h1.454v1.083h.969v-3.789a.516.516 0 0 1 .484-.541h27.269a.516.516 0 0 1 .484.541z" class="cls-3" transform="translate(303.137 -2011.541)"/>
                <path id="사각형_1596" d="M0 0H0.969V1.083H0z" class="cls-3" transform="translate(28.238 2.165)"/>
                <path id="사각형_1597" d="M0 0H0.969V1.083H0z" class="cls-3" transform="translate(30.177 2.165)"/>
                <path id="사각형_1598" d="M0 0H0.969V1.082H0z" class="cls-3" transform="translate(25.33 22.733)"/>
            </g>
            <g id="그룹_301" transform="translate(4.433 2.345)">
                <g id="그룹_300" transform="translate(1.184)">
                    <g id="그룹_298">
                        <g id="패스_1134">
                            <path id="패스_1563" d="M-280.563 2023.462l-2.872-.619a2.3 2.3 0 0 1-1.633-2.7 2.087 2.087 0 0 1 2.415-1.823c2.556.551 2.608 4.491 2.609 4.658a.512.512 0 0 1-.157.378.4.4 0 0 1-.362.106zm-2.256-4.184a1.2 1.2 0 0 0-1.393 1.052 1.33 1.33 0 0 0 .942 1.556l2.31.5c-.111-.975-.499-2.815-1.859-3.108z" class="cls-1" transform="translate(285.106 -2018.28)"/>
                        </g>
                    </g>
                    <g id="그룹_299" transform="translate(4.668)">
                        <g id="패스_1134-2">
                            <path id="패스_1564" d="M-269.964 2023.358a.51.51 0 0 1-.157-.378c0-.167.053-4.108 2.609-4.658a2.087 2.087 0 0 1 2.415 1.823 2.3 2.3 0 0 1-1.633 2.7l-2.872.619a.4.4 0 0 1-.362-.106zm.759-.974l2.309-.5a1.33 1.33 0 0 0 .942-1.556 1.2 1.2 0 0 0-1.394-1.052c-1.358.295-1.747 2.135-1.857 3.109z" class="cls-1" transform="translate(270.121 -2018.28)"/>
                        </g>
                    </g>
                </g>
                <path id="패스_1803" d="M.3.043L1.319 0l-.3 6.593L0 6.636z" class="cls-1" transform="translate(5.435 5.291) rotate(-64.032)"/>
                <path id="패스_1804" d="M.043.3L6.636 0l-.043 1.023L0 1.319z" class="cls-1" transform="translate(0 7.01) rotate(-25.968)"/>
            </g>
        </g>
        <path id="사각형_2108" d="M0 0H56V46H0z" class="cls-2" transform="translate(289.833 207.697)"/>
    </g>
</svg>
