<svg xmlns="http://www.w3.org/2000/svg" width="48" height="40" viewBox="0 0 48 40">
    <defs>
        <style>
            .cls-1{fill:#ff7a00}
        </style>
    </defs>
    <g id="그룹_2593" transform="translate(-156 -208)">
        <g id="그룹_812" transform="translate(160.703 214.594)">
            <g id="그룹_424" transform="translate(0 0)">
                <path id="패스_1796" d="M245.141 2628.115h.458l-.234-.921z" class="cls-1" transform="translate(-232.309 -2610.073)"/>
                <path id="패스_1797" d="M246.89 2629.991l.183-.952h-.417z" class="cls-1" transform="translate(-232.706 -2610.561)"/>
                <path id="패스_1798" d="M243.859 2630.005l.242-.966h-.417z" class="cls-1" transform="translate(-231.925 -2610.562)"/>
                <path id="패스_1801" d="M253.868 2627.358l-.161-.93H228.8l1.567-9.083h14.158v-.864h-14.09v-7.354h21.625v-3.027a2.166 2.166 0 0 0-2.162-2.162h-18.166a2.164 2.164 0 0 0-2.162 2.162v10.771l-1.808 10.483a2.163 2.163 0 0 0 2.133 2.53h21.839a2.164 2.164 0 0 0 2.132-2.53zm-23.432-21.258a1.3 1.3 0 0 1 1.3-1.3H249.9a1.3 1.3 0 0 1 1.3 1.3v2.163h-20.764zm22.292 22.462a1.3 1.3 0 0 1-.993.461H229.9a1.3 1.3 0 0 1-1.28-1.518l.037-.212h24.328l.037.212a1.3 1.3 0 0 1-.294 1.058z" class="cls-1" transform="translate(-227.731 -2603.942)"/>
                <g id="그룹_468" transform="translate(4.861 9.581)">
                    <path id="사각형_1668" d="M0 0H2.741V0.914H0z" class="cls-1"/>
                    <path id="사각형_1669" d="M0 0H2.741V0.914H0z" class="cls-1" transform="translate(4.568)"/>
                    <path id="사각형_1670" d="M0 0H2.741V0.914H0z" class="cls-1" transform="translate(9.136)"/>
                    <path id="사각형_1671" d="M0 0H4.568V0.914H0z" class="cls-1" transform="translate(11.877 8.222)"/>
                    <path id="사각형_1672" d="M0 0H4.568V0.914H0z" class="cls-1" transform="translate(0 8.222)"/>
                    <path id="패스_1802" d="M247.26 2625.828h-.754l-.39 1.986h-.641l-.479-1.986h-.672l-.5 1.986h-.641l-.362-1.986h-.747l.423 1.986h-.628v.518h.741l.38 1.754h.871l.429-1.754h.71l.436 1.754h.872l.39-1.754h.772v-.518h-.66zm-3.8 3.469l-.175-.965h.417zm.961-1.483l.224-.92.234.92zm1.414 1.469l-.234-.951h.417z" class="cls-1" transform="translate(-236.449 -2619.278)"/>
                </g>
            </g>
            <g id="그룹_636" transform="translate(19.998 4.648)">
                <text id="_" fill="#ff7a00" font-family="SegoeUI-Bold, Segoe UI" font-size="7px" font-weight="700" transform="translate(5.559 11.031)">
                    <tspan x="0" y="0">***</tspan>
                </text>
                <path id="패스_1822" d="M188.034 2613.781a8.519 8.519 0 0 0-11.186 4.423l-.026.036-3.471 3.345 3.5 3.381a8.471 8.471 0 0 0 7.69 5.125h.114a8.505 8.505 0 0 0 3.382-16.309zm-.5 14.732a7.5 7.5 0 0 1-9.8-4.05l-.04-.1-2.887-2.781 2.887-2.781.039-.1a7.5 7.5 0 1 1 9.8 9.8z" class="cls-1" transform="translate(-173.351 -2613.082)"/>
            </g>
        </g>
        <path id="사각형_2104" fill="none" d="M0 0H48V40H0z" transform="translate(156 208)"/>
    </g>
</svg>
