<svg xmlns="http://www.w3.org/2000/svg" width="48" height="40" viewBox="0 0 48 40">
    <defs>
        <style>
            .cls-1{fill:#ff7a00}
        </style>
    </defs>
    <g id="그룹_2591" transform="translate(-290 -208)">
        <g id="그룹_814" transform="translate(299.457 217.234)">
            <g id="그룹_297" transform="translate(0 0)">
                <path id="사각형_1684" d="M0 0H0.892V25.071H0z" class="cls-1" transform="translate(28.272 5.558) rotate(90)"/>
                <path id="사각형_1683" d="M0 0H0.799V16.017H0z" class="cls-1" transform="translate(8.437 0.779)"/>
                <path id="패스_1561" d="M-211.669 2018.688h-.828v-.925h.828zm1.656 0h-.828v-.925h.828z" class="cls-1" transform="translate(236.627 -2015.913)"/>
                <path id="패스_1562" d="M-276.108 2011.541h-23.3a1.323 1.323 0 0 0-1.242 1.388v1.388h-1.242a1.322 1.322 0 0 0-1.242 1.387v14.8a1.323 1.323 0 0 0 1.242 1.388h19.575v-.925h-19.575a.441.441 0 0 1-.414-.463v-7.863h1.657v5.088a1.322 1.322 0 0 0 1.242 1.387h21.232v1.388a.446.446 0 0 1-.414.463h-1.242v.925h1.242a1.323 1.323 0 0 0 1.242-1.388v-1.388h1.242a1.322 1.322 0 0 0 1.242-1.387v-14.8a1.323 1.323 0 0 0-1.245-1.388zm-24.544 10.175h-1.657v-2.775h1.657zm24.958 1.851v4.163a.446.446 0 0 1-.414.462h-23.3a.441.441 0 0 1-.414-.462v-10.638h-.828v.925h-1.657v-2.317a.441.441 0 0 1 .414-.462h1.242v.925h.828v-3.238a.441.441 0 0 1 .414-.462h23.3a.441.441 0 0 1 .414.462z" class="cls-1" transform="translate(303.137 -2011.541)"/>
                <path id="사각형_1596" d="M0 0H0.828V0.925H0z" class="cls-1" transform="translate(24.13 1.85)"/>
                <path id="사각형_1597" d="M0 0H0.828V0.925H0z" class="cls-1" transform="translate(25.787 1.85)"/>
                <path id="사각형_1598" d="M0 0H0.828V0.925H0z" class="cls-1" transform="translate(21.646 19.426)"/>
            </g>
            <g id="그룹_301" transform="translate(3.788 2.004)">
                <g id="그룹_300" transform="translate(1.012)">
                    <g id="그룹_298">
                        <g id="패스_1134">
                            <path id="패스_1563" d="M-281.224 2022.708l-2.454-.53a1.969 1.969 0 0 1-1.4-2.3 1.783 1.783 0 0 1 2.063-1.558c2.184.471 2.228 3.838 2.229 3.981a.437.437 0 0 1-.134.323.343.343 0 0 1-.304.084zm-1.927-3.575a1.029 1.029 0 0 0-1.19.9 1.136 1.136 0 0 0 .805 1.33l1.974.426c-.096-.834-.428-2.406-1.59-2.656z" class="cls-1" transform="translate(285.106 -2018.28)"/>
                        </g>
                    </g>
                    <g id="그룹_299" transform="translate(3.989)">
                        <g id="패스_1134-2">
                            <path id="패스_1564" d="M-269.987 2022.62a.436.436 0 0 1-.134-.323c0-.143.045-3.51 2.229-3.981a1.784 1.784 0 0 1 2.064 1.558 1.969 1.969 0 0 1-1.4 2.3l-2.454.53a.343.343 0 0 1-.305-.084zm.648-.832l1.973-.426a1.137 1.137 0 0 0 .805-1.33 1.029 1.029 0 0 0-1.191-.9c-1.16.251-1.492 1.823-1.587 2.655z" class="cls-1" transform="translate(270.121 -2018.28)"/>
                        </g>
                    </g>
                </g>
                <path id="패스_1803" d="M.253.037L1.127 0 .874 5.634 0 5.67z" class="cls-1" transform="translate(4.645 4.521) rotate(-64.032)"/>
                <path id="패스_1804" d="M.037.253L5.67 0l-.036.874L0 1.127z" class="cls-1" transform="translate(0 5.99) rotate(-25.968)"/>
            </g>
        </g>
        <path id="사각형_2108" fill="none" d="M0 0H48V40H0z" transform="translate(290 208)"/>
    </g>
</svg>
