<svg xmlns="http://www.w3.org/2000/svg" id="그룹_3778" width="72.147" height="12.28" viewBox="0 0 72.147 12.28">
    <defs>
        <style>
            .cls-1{fill:#454545}
        </style>
    </defs>
    <path id="패스_4918" d="M249.137 216.47v-1.229h6.563v1.229h-2.276v1.3H251.4v-1.3zm3.262-1.588a4.306 4.306 0 0 1-1.194-.152 2.736 2.736 0 0 1-.9-.435 1.914 1.914 0 0 1-.569-.67 1.924 1.924 0 0 1 0-1.685 1.927 1.927 0 0 1 .569-.67 2.736 2.736 0 0 1 .9-.435 4.768 4.768 0 0 1 2.387 0 2.744 2.744 0 0 1 .9.435 1.92 1.92 0 0 1 .569.67 1.92 1.92 0 0 1 0 1.685 1.907 1.907 0 0 1-.569.67 2.744 2.744 0 0 1-.9.435 4.3 4.3 0 0 1-1.192.152zm0-1.188a1.35 1.35 0 0 0 .812-.235.75.75 0 0 0 .312-.677.789.789 0 0 0-.32-.677 1.5 1.5 0 0 0-1.61 0 .789.789 0 0 0-.319.677.751.751 0 0 0 .312.677 1.35 1.35 0 0 0 .814.235zm7.925 4.517v2.68H253.5v.566h6.829v1.091h-7.509a1.4 1.4 0 0 1-.986-.331 1.178 1.178 0 0 1-.361-.911V219.8h6.827v-.5h-6.829v-1.091zm-4.317-1.437v-5.981h1.893v6.907h-3.78v-.926zm4.317-5.967v6.893h-1.888v-6.893z" class="cls-1" transform="translate(-249.137 -210.268)"/>
    <path id="패스_4919" d="M275.608 216.655a6.426 6.426 0 0 0 1.783-.67 5.177 5.177 0 0 0 1.492-1.222h-3.234v-1.229h3.942a4.2 4.2 0 0 0 .249-1.216h-3.983v-1.229h6.024v.691a5.931 5.931 0 0 1-.09 1.05 5.8 5.8 0 0 1-.257.953h2.11v-2.846h2.026v6.506h-2.026v-2.431h-2.776a6.014 6.014 0 0 1-1.895 1.671 10.171 10.171 0 0 1-2.727 1.05zm2.984 6.022a1.259 1.259 0 0 1-.951-.3 1.315 1.315 0 0 1-.285-.926v-3.481h8.314v4.71zm.791-3.481v2.251h4.261V219.2z" class="cls-1" transform="translate(-262.686 -210.398)"/>
    <path id="패스_4920" d="M305.23 211.227v1.229h-.624v5.871h.763v1.23h-6.218v-1.23h.763v-5.871h-.624v-1.229zm-2.512 7.1v-5.871h-.918v5.871zm3.04-7.39h1.887v11.673h-1.887v-6.672h-.9v-1.229h.9zm4.455 0v11.741h-1.888v-11.741z" class="cls-1" transform="translate(-274.736 -210.398)"/>
    <path id="패스_4921" d="M325.28 215.412a4.775 4.775 0 0 1 .95-3.259 3.681 3.681 0 0 1 5.177 0 6.062 6.062 0 0 1 0 6.519 3.681 3.681 0 0 1-5.177 0 4.776 4.776 0 0 1-.95-3.26zm1.957 0a7.4 7.4 0 0 0 .111 1.4 2.9 2.9 0 0 0 .32.919 1.271 1.271 0 0 0 .5.5 1.479 1.479 0 0 0 1.305 0 1.276 1.276 0 0 0 .5-.5 2.941 2.941 0 0 0 .32-.919 8.877 8.877 0 0 0 0-2.79 2.945 2.945 0 0 0-.32-.919 1.276 1.276 0 0 0-.5-.5 1.479 1.479 0 0 0-1.305 0 1.272 1.272 0 0 0-.5.5 2.908 2.908 0 0 0-.32.919 7.39 7.39 0 0 0-.111 1.39zm8.286-4.475v11.741H333.5v-11.741z" class="cls-1" transform="translate(-288.11 -210.398)"/>
    <path id="패스_4922" d="M357.052 211.089v2.417h1.485v-2.569h2.026v8.992h-2.026v-5.194h-1.485v2.565h-5.205a1.255 1.255 0 0 1-.95-.3 1.314 1.314 0 0 1-.285-.926v-4.987zm-3.552 11.589a1.26 1.26 0 0 1-.951-.3 1.317 1.317 0 0 1-.285-.926v-2.942h2.026v2.942h6.565v1.229zm-.861-6.6h2.387v-3.757h-2.387z" class="cls-1" transform="translate(-301.075 -210.398)"/>
    <path id="패스_4923" d="M385.1 218.674v1.226h-11.287v-1.229zm-6.649-7.459v-1.382h2.026v1.382h3.262v1.229H380.5a5.376 5.376 0 0 0 .263 1.3 3.464 3.464 0 0 0 .633 1.112 3.845 3.845 0 0 0 1.089.877 6.154 6.154 0 0 0 1.624.594l-.556 1.092a7.176 7.176 0 0 1-2.442-.878 4.8 4.8 0 0 1-1.652-1.692 4.662 4.662 0 0 1-1.645 1.692 7.244 7.244 0 0 1-2.435.878l-.555-1.092a5.9 5.9 0 0 0 1.617-.6 3.955 3.955 0 0 0 1.075-.878 3.44 3.44 0 0 0 .625-1.1 5.787 5.787 0 0 0 .278-1.3h-3.234v-1.229z" class="cls-1" transform="translate(-312.951 -209.833)"/>
</svg>
