<svg xmlns="http://www.w3.org/2000/svg" width="28.817" height="20" viewBox="0 0 28.817 20">
    <g>
        <path fill="#ff7a00" d="M861.513 195.511a6 6 0 0 1 5.634 3.951 5.707 5.707 0 0 1 .269 1.008 5.856 5.856 0 0 1 .1 1.042 5.791 5.791 0 0 1-.1 1.041 5.686 5.686 0 0 1-.269 1.011 6.035 6.035 0 0 1-.44.947 5.994 5.994 0 0 1-10.829-.947 6.109 6.109 0 0 1-.366-2.053 6.159 6.159 0 0 1 .095-1.042l-3.94-.693a10 10 0 0 0 0 3.473 9.994 9.994 0 0 0 17.5 4.687 9.748 9.748 0 0 0 1-1.424 9.995 9.995 0 0 0-8.656-15z" transform="translate(-817.369 -191.513) translate(-25.325)"/>
        <path fill="#ea002c" d="M827.37 195.511a6 6 0 0 0-5.635 8.054 5.873 5.873 0 0 0 .44.947 6 6 0 0 0 11.1-1.958 6.059 6.059 0 0 0 .1-1.041 6.129 6.129 0 0 0-.1-1.042l3.939-.693a10.084 10.084 0 0 1-.448 5.158 10.01 10.01 0 0 1-18.8 0 10.217 10.217 0 0 1-.448-1.686 9.992 9.992 0 0 1 9.847-11.737z" transform="translate(-817.369 -191.513)"/>
    </g>
</svg>
